<?xml version="1.0" encoding="UTF-8" standalone="no"?>
<!-- Created with Inkscape (http://www.inkscape.org/) -->

<svg
   version="1.1"
   id="svg1"
   width="703.39923"
   height="686.23987"
   viewBox="0 0 703.39923 686.23987"
   sodipodi:docname="tolitica.svg"
   xml:space="preserve"
   inkscape:version="1.4.1 (93de688d07, 2025-03-30)"
   xmlns:inkscape="http://www.inkscape.org/namespaces/inkscape"
   xmlns:sodipodi="http://sodipodi.sourceforge.net/DTD/sodipodi-0.dtd"
   xmlns="http://www.w3.org/2000/svg"
   xmlns:svg="http://www.w3.org/2000/svg"><sodipodi:namedview
     id="namedview1"
     pagecolor="#ffffff"
     bordercolor="#000000"
     borderopacity="0.25"
     inkscape:showpageshadow="2"
     inkscape:pageopacity="0.0"
     inkscape:pagecheckerboard="0"
     inkscape:deskcolor="#d1d1d1"
     inkscape:zoom="0.55833334"
     inkscape:cx="226.56716"
     inkscape:cy="333.13433"
     inkscape:window-width="1920"
     inkscape:window-height="1012"
     inkscape:window-x="0"
     inkscape:window-y="0"
     inkscape:window-maximized="1"
     inkscape:current-layer="svg1" /><defs
     id="defs1"><clipPath
       clipPathUnits="userSpaceOnUse"
       id="clipPath2"><path
         d="M 0,1080 H 1920 V 0 H 0 Z"
         transform="translate(-944.07265,-788.45402)"
         id="path2" /></clipPath><clipPath
       clipPathUnits="userSpaceOnUse"
       id="clipPath4"><path
         d="M 0,1080 H 1920 V 0 H 0 Z"
         transform="translate(-915.04502,-474.36611)"
         id="path4" /></clipPath><clipPath
       clipPathUnits="userSpaceOnUse"
       id="clipPath6"><path
         d="M 0,1080 H 1920 V 0 H 0 Z"
         transform="translate(-954.09505,-549.32981)"
         id="path6" /></clipPath><clipPath
       clipPathUnits="userSpaceOnUse"
       id="clipPath8"><path
         d="M 0,1080 H 1920 V 0 H 0 Z"
         transform="translate(-1003.8712,-455.51061)"
         id="path8" /></clipPath></defs><g
     id="layer-MC1"
     transform="rotate(-47.931386,241.29475,1629.932)"><path
       id="path1"
       d="m 0,0 -245.177,-422.828 c -9.536,-16.447 2.331,-37.046 21.343,-37.046 h 490.353 c 19.012,0 30.879,20.599 21.342,37.046 L 42.685,0 C 33.179,16.394 9.506,16.394 0,0"
       style="fill:#222222;fill-opacity:1;fill-rule:nonzero;stroke:none"
       transform="matrix(1.3333333,0,0,-1.3333333,1258.7635,388.728)"
       clip-path="url(#clipPath2)" /><path
       id="path3"
       d="m 0,0 c -2.478,6.232 -3.84,13.028 -3.84,20.143 0,5.647 0.858,11.094 2.451,16.217 0.703,2.26 1.427,4.062 1.921,5.216 -10.063,7.16 -21.331,14.535 -33.822,21.792 -11.563,6.719 -22.686,12.471 -33.141,17.402 -46.737,-81.58 -93.427,-163.078 -113.752,-198.556 H 50.37 c -4.353,10.406 -9.202,25.007 -11.447,42.978 -2.079,16.646 -1.272,30.966 0.13,41.658 -10.346,2.25 -19.595,7.436 -26.833,14.641 -4.969,-4.046 -10.549,-8.222 -16.765,-12.357 -4.471,-2.974 -8.825,-5.63 -13,-8 -0.644,-0.34 -1.31,-0.674 -2,-1 -2.797,-1.323 -5.495,-2.29 -8,-3 -7.791,-1.941 -16.488,-3.7 -26,-5 -7.832,-1.071 -15.197,-1.69 -22,-2 6.531,6.615 13.522,13.306 21,20 1.559,1.395 3.114,2.769 4.666,4.121 2.217,1.933 4.561,3.709 7.053,5.271 1.385,0.869 2.813,1.74 4.281,2.608 1.934,1.143 3.837,2.222 5.702,3.241 1.995,1.089 4.031,2.067 6.123,2.956 3.706,1.574 7.431,3.175 11.175,4.803 C -10.299,-4.586 -5.118,-2.296 0,0"
       style="fill:#15daff;fill-opacity:1;fill-rule:nonzero;stroke:#000000;stroke-width:1;stroke-linecap:butt;stroke-linejoin:miter;stroke-miterlimit:10;stroke-dasharray:none;stroke-opacity:1"
       transform="matrix(1.3333333,0,0,-1.3333333,1220.06,807.51187)"
       clip-path="url(#clipPath4)" /><path
       id="path5"
       d="m 0,0 c 0.26,3.03 0.443,7.52 -0.128,12.894 -0.797,7.509 -2.958,10.965 -3.319,15.957 -0.592,8.187 0.603,14.74 2.553,22.723 2.287,9.358 6.01,22.308 12.214,37.777 6.203,-15.469 9.927,-28.419 12.214,-37.777 1.95,-7.983 3.145,-14.536 2.553,-22.723 C 25.726,23.859 23.565,20.403 22.768,12.894 22.197,7.52 22.783,2.956 23.043,-0.074 L 23.03,-1.471 c 9.293,-1.973 17.71,-6.312 24.593,-12.357 7.283,3.01 25.908,11.891 37.771,32.413 3.455,5.976 11.621,20.102 9.532,38.809 C 93.883,66.736 90.648,73.947 88.253,78.33 62.889,122.604 37.525,166.878 12.16,211.151 -4.516,182.043 -47.949,106.23 -93.493,26.732 -82.515,21.623 -70.562,15.4 -58.042,7.809 c 12.378,-7.506 23.311,-15.137 32.834,-22.429 0.62,0.544 1.24,1.087 1.86,1.631 6.56,5.494 14.432,9.473 23.077,11.401 0.029,0.006 0.058,0.013 0.087,0.019 0.078,0.017 0.156,0.034 0.234,0.051 z"
       style="fill:#85ff3f;fill-opacity:1;fill-rule:nonzero;stroke:#000000;stroke-width:1;stroke-linecap:butt;stroke-linejoin:miter;stroke-miterlimit:10;stroke-dasharray:none;stroke-opacity:1"
       transform="matrix(1.3333333,0,0,-1.3333333,1272.1267,707.56027)"
       clip-path="url(#clipPath6)" /><path
       id="path7"
       d="m 0,0 c -7.248,-7.087 -16.463,-12.17 -26.749,-14.353 l 0.003,-25.902 c 0.571,-4.9 3.727,-27.413 23.662,-43.793 16.066,-13.201 33.58,-14.652 39.465,-14.883 H 193.778 L 97.618,68.918 c -1.249,2.18 -3.58,3.512 -6.092,3.482 L 39.914,71.779 c -2.449,-0.03 -4.866,-0.552 -7.109,-1.537 L 11.786,61.013 c 2.974,-6.733 4.626,-14.181 4.626,-22.015 0,-7.179 -1.387,-14.034 -3.908,-20.312 l 2.98,-1.568 c 1.43,-0.752 2.887,-1.45 4.368,-2.092 L 43.945,4.586 c 2.452,-1.063 4.817,-2.317 7.071,-3.752 l 3.506,-2.231 c 2.732,-1.739 5.299,-3.724 7.67,-5.931 l 25.437,-23.683 c -11.401,1.101 -23.434,2.716 -36,5 -5.61,1.02 -11.062,2.125 -16.352,3.298 -0.465,0.199 -1.193,0.51 -1.658,0.709 L 5.277,-3.109 C 4.179,-2.377 3.051,-1.69 1.896,-1.051 Z"
       style="fill:#ffca06;fill-opacity:1;fill-rule:nonzero;stroke:#000000;stroke-width:1;stroke-linecap:butt;stroke-linejoin:miter;stroke-miterlimit:10;stroke-dasharray:none;stroke-opacity:1"
       transform="matrix(1.3333333,0,0,-1.3333333,1338.4949,832.65253)"
       clip-path="url(#clipPath8)" /></g></svg>
