<svg xmlns="http://www.w3.org/2000/svg" xmlns:v="https://svgstorm.com"
viewBox = "0 0 685 668"
width="685"
height="668">
<g fill="None" fill-opacity="0.0" stroke="#000000" stroke-opacity="0.00" stroke-width="0.3"><path d="
M 0.00 297.00 
C 7.07 244.14 21.72 190.77 52.00 146.00
C 64.04 148.99 54.10 161.95 49.69 169.69 C 45.29 177.44 40.50 186.93 36.69 195.69 C 32.89 204.46 29.57 214.74 26.02 224.02 C 22.48 233.31 19.63 244.83 17.67 254.67 C 15.72 264.52 12.47 278.01 11.67 287.67 C 10.87 297.33 12.52 318.16 0.00 307.00
L 0.00 668.00
L 315.00 668.00
C 305.79 666.65 295.38 664.57 285.93 663.07 C 276.47 661.57 266.77 659.77 257.78 657.22 C 248.79 654.67 239.81 653.29 231.32 649.68 C 222.83 646.07 214.83 644.99 206.78 640.22 C 198.72 635.46 191.35 635.94 183.75 629.25 C 176.16 622.55 171.31 624.22 162.75 616.25 C 154.19 608.27 167.66 605.09 174.70 612.30 C 181.74 619.51 189.19 618.97 196.69 624.31 C 204.20 629.64 211.85 631.17 220.08 634.92 C 228.30 638.68 236.38 640.87 245.07 643.93 C 253.77 646.98 262.74 648.88 272.02 650.98 C 281.31 653.07 292.44 654.38 302.00 656.00
C 284.16 649.66 269.19 633.42 252.25 624.75 C 235.32 616.07 222.05 600.95 207.25 588.75 C 192.45 576.56 179.08 561.42 167.00 547.00
C 158.03 540.33 150.29 532.85 142.25 524.75 C 134.21 516.65 126.43 509.39 119.75 500.25 C 113.07 491.10 105.92 482.92 100.23 472.77 C 94.54 462.62 88.09 452.88 83.23 441.77 C 78.37 430.66 73.96 419.90 70.22 407.78 C 66.48 395.65 63.43 383.14 61.07 369.93 C 58.72 356.72 58.54 340.15 58.00 326.00 C 57.46 311.85 58.76 293.80 60.33 280.33 C 61.90 266.86 65.96 254.39 68.93 241.93 C 71.89 229.46 77.64 219.19 81.77 207.77 C 85.90 196.36 96.68 185.63 86.75 177.25 C 76.83 168.87 73.96 159.67 68.68 148.32 C 63.40 136.97 63.91 120.05 65.78 107.78 C 67.65 95.51 71.62 83.31 77.77 72.77 C 83.92 62.23 89.47 54.21 98.75 45.75 C 108.03 37.30 115.57 32.38 127.22 27.22 C 138.88 22.07 154.46 20.78 168.00 21.00 C 181.54 21.22 194.25 24.79 206.00 31.00
C 214.40 30.53 222.73 21.35 232.02 20.02 C 241.32 18.69 249.78 12.25 259.68 10.68 C 269.57 9.10 279.52 5.23 290.02 4.02 C 300.53 2.82 313.58 0.67 324.00 0.00
L 0.00 0.00
L 0.00 297.00
M 11.00 369.00 
C 17.51 371.64 12.54 387.36 15.93 393.07 C 19.32 398.79 18.64 409.61 21.93 416.07 C 25.21 422.54 25.77 431.36 28.93 438.07 C 32.09 444.79 34.77 452.38 37.92 459.08 C 41.08 465.78 44.31 472.03 47.31 478.70 C 50.30 485.36 54.58 490.75 57.77 497.23 C 60.96 503.71 65.96 509.16 69.75 515.25 C 73.55 521.34 77.90 526.15 81.92 532.08 C 85.93 538.02 91.77 541.27 95.30 547.70 C 98.83 554.12 106.35 556.16 110.25 562.75 C 114.14 569.34 122.37 568.80 124.92 577.08 C 127.48 585.35 113.61 583.33 110.23 576.77 C 106.85 570.21 99.51 568.26 95.75 562.25 C 91.98 556.24 84.93 552.71 81.25 546.75 C 77.57 540.79 72.22 536.54 68.25 530.75 C 64.28 524.96 60.15 519.71 56.25 513.75 C 52.35 507.80 48.31 501.53 44.70 495.30 C 41.08 489.08 37.65 482.91 34.68 476.32 C 31.71 469.74 27.76 463.68 25.23 456.77 C 22.70 449.86 19.52 441.90 17.07 434.93 C 14.63 427.95 12.67 419.50 10.22 412.78 C 7.78 406.05 7.85 394.57 5.22 388.78 C 2.59 382.98 0.59 364.78 11.00 369.00 Z"/>
</g>
<g fill="None" fill-opacity="0.0" stroke="#FC00FC" stroke-opacity="0.98" stroke-width="0.3"><path d="
M 206.00 31.00 
C 217.37 37.01 222.34 51.12 236.07 43.07 C 249.81 35.02 259.92 36.11 274.02 31.02 C 288.13 25.94 302.03 25.29 317.07 23.07 C 332.12 20.86 349.13 22.60 364.07 23.93 C 379.01 25.26 395.24 24.64 409.02 29.98 C 422.81 35.31 433.68 33.82 446.70 42.31 C 459.71 50.79 470.20 36.38 480.00 30.00
C 471.83 29.92 464.84 20.70 455.99 20.01 C 447.14 19.32 439.31 11.76 429.98 11.02 C 420.65 10.29 411.73 5.47 402.00 5.00 C 392.27 4.54 381.22 1.47 372.00 0.00
L 353.00 0.00
C 347.74 1.63 339.19 1.69 334.00 0.00
L 324.00 0.00
C 313.58 0.67 300.53 2.82 290.02 4.02 C 279.52 5.23 269.57 9.10 259.68 10.68 C 249.78 12.25 241.32 18.69 232.02 20.02 C 222.73 21.35 214.40 30.53 206.00 31.00 Z"/>
</g>
<g fill="None" fill-opacity="0.0" stroke="#FE00FE" stroke-opacity="0.80" stroke-width="0.3"><path d="
M 353.00 0.00 
L 334.00 0.00
C 339.19 1.69 347.74 1.63 353.00 0.00 Z"/>
</g>
<g fill="None" fill-opacity="0.0" stroke="#000000" stroke-opacity="0.00" stroke-width="0.3"><path d="
M 480.00 30.00 
C 505.15 13.61 546.68 19.08 571.08 33.92 C 595.49 48.76 612.78 71.79 618.00 100.00 C 623.21 128.22 619.29 167.01 592.00 184.00
C 593.14 187.25 595.34 190.79 598.00 193.00
C 607.27 200.77 614.02 211.09 620.75 221.25 C 627.49 231.40 634.97 241.49 640.77 252.23 C 646.57 262.97 654.55 273.68 658.92 285.08 C 663.30 296.47 672.67 308.42 675.00 320.00
C 675.02 303.39 671.47 284.13 669.67 268.33 C 667.87 252.53 662.32 237.20 658.07 222.93 C 653.83 208.65 646.74 195.47 641.23 182.77 C 635.72 170.07 620.25 155.29 633.00 146.00
C 663.80 194.68 682.16 250.51 684.00 309.00
C 684.00 308.96 685.00 309.00 685.00 309.00
L 685.00 0.00
L 372.00 0.00
C 381.22 1.47 392.27 4.54 402.00 5.00 C 411.73 5.47 420.65 10.29 429.98 11.02 C 439.31 11.76 447.14 19.32 455.99 20.01 C 464.84 20.70 471.83 29.92 480.00 30.00 Z"/>
</g>
<g fill="None" fill-opacity="0.0" stroke="#000001" stroke-opacity="1.00" stroke-width="0.3"><path d="
M 167.00 547.00 
C 216.34 583.68 276.54 607.00 339.00 607.00
C 345.67 607.00 352.33 607.00 359.00 607.00
C 386.14 607.00 417.77 598.20 442.02 589.02 C 466.27 579.85 487.55 567.54 508.25 553.25 C 528.95 538.96 543.95 524.09 560.75 504.75 C 577.55 485.42 588.86 465.62 599.92 441.92 C 610.99 418.23 619.73 391.96 623.78 364.78 C 627.83 337.60 628.84 297.74 622.07 270.93 C 615.31 244.11 612.13 216.80 598.00 193.00
C 595.34 190.79 593.14 187.25 592.00 184.00
C 619.29 167.01 623.21 128.22 618.00 100.00 C 612.78 71.79 595.49 48.76 571.08 33.92 C 546.68 19.08 505.15 13.61 480.00 30.00
C 470.20 36.38 459.71 50.79 446.70 42.31 C 433.68 33.82 422.81 35.31 409.02 29.98 C 395.24 24.64 379.01 25.26 364.07 23.93 C 349.13 22.60 332.12 20.86 317.07 23.07 C 302.03 25.29 288.13 25.94 274.02 31.02 C 259.92 36.11 249.81 35.02 236.07 43.07 C 222.34 51.12 217.37 37.01 206.00 31.00
C 194.25 24.79 181.54 21.22 168.00 21.00 C 154.46 20.78 138.88 22.07 127.22 27.22 C 115.57 32.38 108.03 37.30 98.75 45.75 C 89.47 54.21 83.92 62.23 77.77 72.77 C 71.62 83.31 67.65 95.51 65.78 107.78 C 63.91 120.05 63.40 136.97 68.68 148.32 C 73.96 159.67 76.83 168.87 86.75 177.25 C 96.68 185.63 85.90 196.36 81.77 207.77 C 77.64 219.19 71.89 229.46 68.93 241.93 C 65.96 254.39 61.90 266.86 60.33 280.33 C 58.76 293.80 57.46 311.85 58.00 326.00 C 58.54 340.15 58.72 356.72 61.07 369.93 C 63.43 383.14 66.48 395.65 70.22 407.78 C 73.96 419.90 78.37 430.66 83.23 441.77 C 88.09 452.88 94.54 462.62 100.23 472.77 C 105.92 482.92 113.07 491.10 119.75 500.25 C 126.43 509.39 134.21 516.65 142.25 524.75 C 150.29 532.85 158.03 540.33 167.00 547.00
M 579.00 55.00 
C 593.94 69.94 605.00 87.27 605.00 109.00
C 605.33 112.38 605.83 115.54 605.00 119.00
C 604.88 120.32 605.09 121.67 605.00 123.00
C 603.39 92.63 585.64 64.93 553.99 59.01 C 522.35 53.09 496.87 74.24 478.00 97.00
C 498.60 111.71 517.11 127.08 531.25 148.75 C 545.40 170.41 557.67 195.65 568.00 218.00
C 571.23 210.64 566.80 201.44 568.00 195.00
C 589.81 238.39 603.20 285.37 600.00 336.00
C 598.54 374.22 590.26 413.65 567.00 444.00
C 565.67 445.74 564.86 449.30 562.00 450.00
C 565.57 428.33 569.30 406.66 569.00 384.00
C 569.00 372.34 567.29 361.34 566.00 350.00
C 555.53 380.72 547.17 416.54 518.00 437.00
C 518.63 431.79 523.90 425.94 521.00 421.00
C 490.51 460.81 448.48 490.59 401.00 502.00
C 416.96 487.77 428.99 469.40 437.00 450.00
C 438.61 445.64 439.46 442.74 441.32 438.32 C 443.19 433.90 442.40 429.02 444.33 424.33 C 446.26 419.64 443.34 412.72 443.00 410.00
C 442.62 412.52 442.60 414.57 442.00 417.00
C 436.19 440.46 417.26 461.53 396.00 473.00
C 379.91 485.33 363.25 495.00 342.00 495.00
C 317.35 495.00 287.94 477.65 272.00 459.00
C 256.16 443.17 243.99 429.41 241.00 407.00
C 240.68 443.14 259.14 474.35 284.00 501.00
C 271.93 498.18 259.00 493.09 247.78 488.22 C 236.55 483.36 226.40 476.99 216.30 470.70 C 206.21 464.40 198.67 456.03 189.75 448.25 C 180.83 440.47 174.46 428.72 166.00 424.00
C 168.06 427.95 167.35 433.80 169.00 438.00
C 139.49 417.57 127.04 381.58 122.00 348.00
C 111.21 380.06 119.76 418.40 123.00 450.00
C 111.32 434.07 102.49 416.45 96.00 398.00
C 73.21 331.40 86.33 254.80 117.00 194.00
C 123.00 198.44 112.34 210.56 119.00 216.00
C 137.08 169.23 166.65 124.35 210.00 96.00
C 198.92 97.09 193.01 80.71 184.75 74.25 C 176.49 67.79 166.02 59.14 153.78 58.22 C 141.54 57.31 124.11 57.83 113.75 64.75 C 103.39 71.68 95.90 76.73 90.08 88.08 C 84.26 99.43 82.02 113.54 81.00 126.00
C 75.73 102.60 84.18 76.25 102.00 60.00
C 130.95 31.05 176.87 21.69 210.00 50.00
C 216.54 55.59 224.97 63.77 229.00 71.00
C 229.49 69.22 231.62 68.77 233.00 68.00
C 265.40 50.08 305.48 43.00 343.00 43.00
C 384.00 43.00 422.77 53.24 459.00 70.00
C 479.44 25.21 547.43 20.09 579.00 55.00 Z"/>
</g>
<g fill="None" fill-opacity="0.0" stroke="#4AF4FC" stroke-opacity="1.00" stroke-width="0.3"><path d="
M 343.00 43.00 
C 343.00 49.33 343.00 55.67 343.00 62.00
C 356.99 65.46 371.83 61.76 385.67 66.33 C 399.51 70.90 383.33 86.39 379.25 95.25 C 375.16 104.10 366.81 115.38 362.08 125.08 C 357.35 134.79 349.81 145.70 344.75 155.75 C 339.68 165.79 333.63 176.06 328.08 186.08 C 322.53 196.09 315.48 206.46 311.00 217.00
C 330.33 217.00 349.67 217.00 369.00 217.00
C 363.83 225.16 358.14 234.50 351.75 241.75 C 345.36 249.00 341.08 260.00 334.70 266.70 C 328.31 273.39 313.53 286.82 329.00 287.00 C 344.47 287.18 355.90 286.87 371.00 287.00
C 363.32 301.27 340.04 305.90 343.00 326.00 C 345.96 346.10 340.37 368.86 343.00 389.00
C 359.80 389.00 376.85 382.42 393.00 389.00
C 396.63 383.25 392.31 376.27 396.00 371.00
C 397.86 377.51 399.87 384.02 400.00 391.00
C 404.31 403.43 420.43 417.64 408.00 432.00
C 420.62 433.71 435.04 427.43 439.00 415.00
C 441.01 414.18 440.47 416.82 442.00 417.00
C 442.60 414.57 442.62 412.52 443.00 410.00
C 444.98 397.01 444.07 382.58 441.00 370.00
C 436.09 349.85 426.40 331.14 415.00 314.00
C 415.35 321.89 405.56 318.41 403.25 313.75 C 400.94 309.09 397.47 305.06 394.00 301.00
C 388.71 294.81 373.45 284.84 381.00 279.00
C 380.57 274.84 377.50 271.82 376.00 268.00
C 394.56 265.10 391.81 241.82 404.75 231.75 C 417.69 221.69 447.30 222.89 445.00 245.00
C 457.71 254.74 465.10 271.15 477.25 281.75 C 489.39 292.35 502.49 309.79 502.00 326.00 C 501.51 342.21 490.36 360.74 476.00 369.00
C 482.66 369.71 485.38 385.11 489.25 389.75 C 493.13 394.38 499.06 409.71 498.00 416.00
C 501.33 413.87 507.88 411.48 512.00 408.00
C 536.97 386.87 556.47 355.35 564.00 324.00
C 567.73 308.46 567.36 291.60 571.00 277.00
C 575.49 293.43 581.29 309.55 582.00 327.00
C 582.08 326.81 583.90 327.20 584.00 327.00
C 584.54 325.92 584.70 324.23 585.00 323.00
C 587.40 322.95 589.04 324.97 591.00 326.00
C 590.33 323.06 592.09 320.82 592.00 318.00
C 597.62 322.27 596.60 330.73 600.00 336.00
C 603.20 285.37 589.81 238.39 568.00 195.00
C 566.80 201.44 571.23 210.64 568.00 218.00
C 557.67 195.65 545.40 170.41 531.25 148.75 C 517.11 127.08 498.60 111.71 478.00 97.00
C 466.22 88.59 482.81 77.01 491.25 69.25 C 499.69 61.49 512.81 52.76 526.02 52.02 C 539.24 51.29 558.95 52.67 571.00 59.00
C 567.26 53.51 575.89 55.18 579.00 55.00
C 547.43 20.09 479.44 25.21 459.00 70.00
C 422.77 53.24 384.00 43.00 343.00 43.00 Z"/>
</g>
<g fill="None" fill-opacity="0.0" stroke="#0BEEF9" stroke-opacity="1.00" stroke-width="0.3"><path d="
M 102.00 60.00 
C 105.09 60.71 103.65 64.85 104.00 67.00
C 134.40 41.27 181.74 48.70 207.00 79.00
C 208.17 75.50 208.99 70.91 206.00 68.00
C 211.70 64.86 216.89 54.74 210.00 50.00
C 176.87 21.69 130.95 31.05 102.00 60.00 Z"/>
</g>
<g fill="None" fill-opacity="0.0" stroke="#FBFCFC" stroke-opacity="1.00" stroke-width="0.3"><path d="
M 233.00 68.00 
C 234.93 71.53 240.16 73.90 244.00 76.00
C 240.73 79.23 236.07 80.79 232.00 83.00
C 224.49 86.84 217.01 91.34 210.00 96.00
C 166.65 124.35 137.08 169.23 119.00 216.00
C 112.34 210.56 123.00 198.44 117.00 194.00
C 86.33 254.80 73.21 331.40 96.00 398.00
C 93.13 379.91 86.24 356.96 88.00 337.00
C 91.78 342.12 95.97 348.76 103.00 349.00
C 102.22 325.55 106.81 303.38 114.00 282.00
C 117.51 303.33 121.54 325.45 129.00 346.00
C 130.16 348.81 131.86 351.91 133.00 355.00
C 142.21 379.95 164.36 403.84 187.00 418.00
C 185.15 412.93 190.92 403.92 191.98 398.98 C 193.03 394.03 198.21 387.86 200.75 383.75 C 203.30 379.65 207.81 371.31 213.00 371.00
C 197.71 363.27 185.30 344.07 185.00 327.00 C 184.70 309.93 198.15 292.06 211.75 281.75 C 225.34 271.43 230.32 250.93 246.00 243.00
C 245.45 243.14 242.13 242.01 241.00 244.00
C 240.02 221.61 269.13 221.59 282.08 231.92 C 295.03 242.25 288.24 273.20 311.00 268.00
C 305.20 273.66 308.05 284.45 300.75 288.75 C 293.46 293.06 292.40 304.64 284.00 302.00
C 283.96 297.04 288.43 293.80 291.00 290.00
C 289.02 292.15 286.02 293.98 284.00 296.00
C 265.49 317.66 253.68 343.94 244.00 370.00
C 240.23 380.14 239.43 395.20 241.00 407.00
C 243.99 429.41 256.16 443.17 272.00 459.00
C 262.17 447.49 252.26 435.40 248.00 421.00
C 261.39 438.46 293.88 437.42 298.00 413.00
C 279.90 406.56 286.75 380.22 290.00 367.00
C 294.16 371.86 288.81 382.84 292.00 390.00
C 308.12 383.35 326.11 389.19 343.00 389.00
C 340.37 368.86 345.96 346.10 343.00 326.00 C 340.04 305.90 363.32 301.27 371.00 287.00
C 355.90 286.87 344.47 287.18 329.00 287.00 C 313.53 286.82 328.31 273.39 334.70 266.70 C 341.08 260.00 345.36 249.00 351.75 241.75 C 358.14 234.50 363.83 225.16 369.00 217.00
C 349.67 217.00 330.33 217.00 311.00 217.00
C 315.48 206.46 322.53 196.09 328.08 186.08 C 333.63 176.06 339.68 165.79 344.75 155.75 C 349.81 145.70 357.35 134.79 362.08 125.08 C 366.81 115.38 375.16 104.10 379.25 95.25 C 383.33 86.39 399.51 70.90 385.67 66.33 C 371.83 61.76 356.99 65.46 343.00 62.00
C 343.00 55.67 343.00 49.33 343.00 43.00
C 305.48 43.00 265.40 50.08 233.00 68.00 Z"/>
</g>
<g fill="None" fill-opacity="0.0" stroke="#16D5F3" stroke-opacity="0.98" stroke-width="0.3"><path d="
M 102.00 60.00 
C 84.18 76.25 75.73 102.60 81.00 126.00
C 82.02 113.54 84.26 99.43 90.08 88.08 C 95.90 76.73 103.39 71.68 113.75 64.75 C 124.11 57.83 141.54 57.31 153.78 58.22 C 166.02 59.14 176.49 67.79 184.75 74.25 C 193.01 80.71 198.92 97.09 210.00 96.00
C 217.01 91.34 224.49 86.84 232.00 83.00
C 230.95 79.25 230.94 74.47 229.00 71.00
C 224.97 63.77 216.54 55.59 210.00 50.00
C 216.89 54.74 211.70 64.86 206.00 68.00
C 208.99 70.91 208.17 75.50 207.00 79.00
C 181.74 48.70 134.40 41.27 104.00 67.00
C 103.65 64.85 105.09 60.71 102.00 60.00 Z"/>
</g>
<g fill="None" fill-opacity="0.0" stroke="#0BC1E2" stroke-opacity="0.99" stroke-width="0.3"><path d="
M 478.00 97.00 
C 496.87 74.24 522.35 53.09 553.99 59.01 C 585.64 64.93 603.39 92.63 605.00 123.00
C 605.09 121.67 604.88 120.32 605.00 119.00
C 605.29 115.73 605.00 112.29 605.00 109.00
C 605.00 87.27 593.94 69.94 579.00 55.00
C 575.89 55.18 567.26 53.51 571.00 59.00
C 558.95 52.67 539.24 51.29 526.02 52.02 C 512.81 52.76 499.69 61.49 491.25 69.25 C 482.81 77.01 466.22 88.59 478.00 97.00 Z"/>
</g>
<g fill="None" fill-opacity="0.0" stroke="#C1CAD0" stroke-opacity="0.99" stroke-width="0.3"><path d="
M 229.00 71.00 
C 230.94 74.47 230.95 79.25 232.00 83.00
C 236.07 80.79 240.73 79.23 244.00 76.00
C 240.16 73.90 234.93 71.53 233.00 68.00
C 231.62 68.77 229.49 69.22 229.00 71.00 Z"/>
</g>
<g fill="None" fill-opacity="0.0" stroke="#056A7C" stroke-opacity="0.77" stroke-width="0.3"><path d="
M 605.00 119.00 
C 605.83 115.54 605.33 112.38 605.00 109.00
C 605.00 112.29 605.29 115.73 605.00 119.00 Z"/>
</g>
<g fill="None" fill-opacity="0.0" stroke="#000209" stroke-opacity="0.91" stroke-width="0.3"><path d="
M 0.00 297.00 
L 0.00 307.00
C 12.52 318.16 10.87 297.33 11.67 287.67 C 12.47 278.01 15.72 264.52 17.67 254.67 C 19.63 244.83 22.48 233.31 26.02 224.02 C 29.57 214.74 32.89 204.46 36.69 195.69 C 40.50 186.93 45.29 177.44 49.69 169.69 C 54.10 161.95 64.04 148.99 52.00 146.00
C 21.72 190.77 7.07 244.14 0.00 297.00 Z"/>
</g>
<g fill="None" fill-opacity="0.0" stroke="#01030B" stroke-opacity="0.94" stroke-width="0.3"><path d="
M 675.00 320.00 
C 675.00 321.67 675.00 323.33 675.00 325.00
C 675.64 331.00 675.57 338.08 675.00 344.00
C 675.00 433.45 628.00 515.06 561.25 575.25 C 494.49 635.44 393.73 671.51 302.00 656.00
C 292.44 654.38 281.31 653.07 272.02 650.98 C 262.74 648.88 253.77 646.98 245.07 643.93 C 236.38 640.87 228.30 638.68 220.08 634.92 C 211.85 631.17 204.20 629.64 196.69 624.31 C 189.19 618.97 181.74 619.51 174.70 612.30 C 167.66 605.09 154.19 608.27 162.75 616.25 C 171.31 624.22 176.16 622.55 183.75 629.25 C 191.35 635.94 198.72 635.46 206.78 640.22 C 214.83 644.99 222.83 646.07 231.32 649.68 C 239.81 653.29 248.79 654.67 257.78 657.22 C 266.77 659.77 276.47 661.57 285.93 663.07 C 295.38 664.57 305.79 666.65 315.00 668.00
L 347.00 668.00
C 349.10 666.28 353.15 667.00 356.00 667.00
C 439.06 667.00 524.04 628.45 582.75 569.75 C 641.46 511.06 684.00 429.33 684.00 346.00
C 684.00 333.67 684.00 321.33 684.00 309.00
C 682.16 250.51 663.80 194.68 633.00 146.00
C 620.25 155.29 635.72 170.07 641.23 182.77 C 646.74 195.47 653.83 208.65 658.07 222.93 C 662.32 237.20 667.87 252.53 669.67 268.33 C 671.47 284.13 675.02 303.39 675.00 320.00 Z"/>
</g>
<g fill="None" fill-opacity="0.0" stroke="#FD00FD" stroke-opacity="0.99" stroke-width="0.3"><path d="
M 359.00 607.00 
C 352.71 607.61 345.23 607.60 339.00 607.00
C 276.54 607.00 216.34 583.68 167.00 547.00
C 179.08 561.42 192.45 576.56 207.25 588.75 C 222.05 600.95 235.32 616.07 252.25 624.75 C 269.19 633.42 284.16 649.66 302.00 656.00
C 393.73 671.51 494.49 635.44 561.25 575.25 C 628.00 515.06 675.00 433.45 675.00 344.00
C 675.00 337.67 675.01 331.33 675.00 325.00
C 675.00 323.33 675.00 321.67 675.00 320.00
C 672.67 308.42 663.30 296.47 658.92 285.08 C 654.55 273.68 646.57 262.97 640.77 252.23 C 634.97 241.49 627.49 231.40 620.75 221.25 C 614.02 211.09 607.27 200.77 598.00 193.00
C 612.13 216.80 615.31 244.11 622.07 270.93 C 628.84 297.74 627.83 337.60 623.78 364.78 C 619.73 391.96 610.99 418.23 599.92 441.92 C 588.86 465.62 577.55 485.42 560.75 504.75 C 543.95 524.09 528.95 538.96 508.25 553.25 C 487.55 567.54 466.27 579.85 442.02 589.02 C 417.77 598.20 386.14 607.00 359.00 607.00 Z"/>
</g>
<g fill="None" fill-opacity="0.0" stroke="#D3D6D8" stroke-opacity="0.98" stroke-width="0.3"><path d="
M 246.00 243.00 
C 252.83 239.55 260.48 238.91 268.07 240.93 C 275.66 242.95 278.30 246.36 283.92 252.08 C 289.54 257.81 287.42 266.58 289.00 274.00 C 290.58 281.42 303.01 278.45 293.00 287.00
C 292.22 287.85 291.67 289.12 291.00 290.00
C 288.43 293.80 283.96 297.04 284.00 302.00
C 292.40 304.64 293.46 293.06 300.75 288.75 C 308.05 284.45 305.20 273.66 311.00 268.00
C 288.24 273.20 295.03 242.25 282.08 231.92 C 269.13 221.59 240.02 221.61 241.00 244.00
C 242.13 242.01 245.45 243.14 246.00 243.00 Z"/>
</g>
<g fill="None" fill-opacity="0.0" stroke="#09BEEB" stroke-opacity="0.99" stroke-width="0.3"><path d="
M 394.00 301.00 
C 401.15 306.31 400.21 297.48 398.00 293.00
C 396.28 289.52 393.01 285.10 389.00 284.00
C 402.42 276.38 393.70 256.82 405.08 248.08 C 416.46 239.35 432.78 236.72 445.00 245.00
C 447.30 222.89 417.69 221.69 404.75 231.75 C 391.81 241.82 394.56 265.10 376.00 268.00
C 377.50 271.82 380.57 274.84 381.00 279.00
C 373.45 284.84 388.71 294.81 394.00 301.00 Z"/>
</g>
<g fill="None" fill-opacity="0.0" stroke="#000002" stroke-opacity="0.99" stroke-width="0.3"><path d="
M 246.00 243.00 
C 230.32 250.93 225.34 271.43 211.75 281.75 C 198.15 292.06 184.70 309.93 185.00 327.00 C 185.30 344.07 197.71 363.27 213.00 371.00
C 217.97 373.51 224.20 375.61 230.00 375.00
C 233.39 374.08 241.05 372.50 244.00 370.00
C 253.68 343.94 265.49 317.66 284.00 296.00
C 286.78 292.75 289.80 289.74 293.00 287.00
C 303.01 278.45 290.58 281.42 289.00 274.00 C 287.42 266.58 289.54 257.81 283.92 252.08 C 278.30 246.36 275.66 242.95 268.07 240.93 C 260.48 238.91 252.83 239.55 246.00 243.00
M 244.00 275.00 
C 238.78 292.67 260.55 310.38 274.00 295.00
C 270.42 306.00 256.88 311.17 246.92 305.08 C 236.97 298.98 236.04 282.72 244.00 275.00
M 267.00 279.00 
C 271.67 281.14 267.82 289.88 262.78 287.22 C 257.73 284.56 261.41 276.44 267.00 279.00 Z"/>
</g>
<g fill="None" fill-opacity="0.0" stroke="#000002" stroke-opacity="0.99" stroke-width="0.3"><path d="
M 398.00 293.00 
C 403.90 300.19 409.88 306.30 415.00 314.00
C 426.40 331.14 436.09 349.85 441.00 370.00
C 444.60 374.84 454.62 374.29 460.00 374.00
C 465.80 373.69 470.99 371.88 476.00 369.00
C 490.36 360.74 501.51 342.21 502.00 326.00 C 502.49 309.79 489.39 292.35 477.25 281.75 C 465.10 271.15 457.71 254.74 445.00 245.00
C 432.78 236.72 416.46 239.35 405.08 248.08 C 393.70 256.82 402.42 276.38 389.00 284.00
C 393.01 285.10 396.28 289.52 398.00 293.00
M 412.00 292.00 
C 420.93 311.25 448.04 295.36 443.00 277.00
C 451.85 285.10 448.23 300.93 437.92 305.92 C 427.62 310.92 412.79 304.07 412.00 292.00
M 423.00 278.00 
C 428.61 279.14 426.51 290.76 420.33 288.67 C 414.14 286.57 417.45 276.87 423.00 278.00 Z"/>
</g>
<g fill="None" fill-opacity="0.0" stroke="#33E3EA" stroke-opacity="0.98" stroke-width="0.3"><path d="
M 244.00 275.00 
C 236.04 282.72 236.97 298.98 246.92 305.08 C 256.88 311.17 270.42 306.00 274.00 295.00
C 260.55 310.38 238.78 292.67 244.00 275.00 Z"/>
</g>
<g fill="None" fill-opacity="0.0" stroke="#2BE3EA" stroke-opacity="0.98" stroke-width="0.3"><path d="
M 412.00 292.00 
C 412.79 304.07 427.62 310.92 437.92 305.92 C 448.23 300.93 451.85 285.10 443.00 277.00
C 448.04 295.36 420.93 311.25 412.00 292.00 Z"/>
</g>
<g fill="None" fill-opacity="0.0" stroke="#27BCDC" stroke-opacity="0.99" stroke-width="0.3"><path d="
M 564.00 324.00 
C 562.65 340.04 554.34 358.94 544.75 372.75 C 535.16 386.55 526.38 401.37 512.00 408.00
C 507.88 411.48 501.33 413.87 498.00 416.00
C 488.07 422.36 480.19 428.35 467.00 430.00
C 466.04 430.12 461.15 432.07 460.00 430.00
C 454.30 452.27 439.71 474.04 420.00 487.00
C 422.72 480.99 425.73 473.04 429.77 467.77 C 433.81 462.50 441.62 455.92 437.00 450.00
C 428.99 469.40 416.96 487.77 401.00 502.00
C 448.48 490.59 490.51 460.81 521.00 421.00
C 523.90 425.94 518.63 431.79 518.00 437.00
C 547.17 416.54 555.53 380.72 566.00 350.00
C 567.29 361.34 569.00 372.34 569.00 384.00
C 570.82 402.79 573.04 425.40 567.00 444.00
C 590.26 413.65 598.54 374.22 600.00 336.00
C 596.60 330.73 597.62 322.27 592.00 318.00
C 592.09 320.82 590.33 323.06 591.00 326.00
C 589.04 324.97 587.40 322.95 585.00 323.00
C 584.70 324.23 584.54 325.92 584.00 327.00
C 581.84 334.24 582.84 343.76 584.00 351.00
C 579.46 345.91 583.24 334.51 582.00 327.00
C 581.29 309.55 575.49 293.43 571.00 277.00
C 567.36 291.60 567.73 308.46 564.00 324.00
M 598.00 338.00 
C 598.62 345.25 597.17 351.94 597.00 359.00
C 593.91 353.56 598.31 346.73 596.00 341.00
C 592.24 343.99 589.00 347.49 585.00 350.00
C 587.65 345.45 593.29 340.70 598.00 338.00 Z"/>
</g>
<g fill="None" fill-opacity="0.0" stroke="#E2E6E7" stroke-opacity="0.98" stroke-width="0.3"><path d="
M 423.00 278.00 
C 417.45 276.87 414.14 286.57 420.33 288.67 C 426.51 290.76 428.61 279.14 423.00 278.00 Z"/>
</g>
<g fill="None" fill-opacity="0.0" stroke="#DFE1E4" stroke-opacity="0.97" stroke-width="0.3"><path d="
M 267.00 279.00 
C 261.41 276.44 257.73 284.56 262.78 287.22 C 267.82 289.88 271.67 281.14 267.00 279.00 Z"/>
</g>
<g fill="None" fill-opacity="0.0" stroke="#D6D8D9" stroke-opacity="0.98" stroke-width="0.3"><path d="
M 96.00 398.00 
C 102.49 416.45 111.32 434.07 123.00 450.00
C 119.76 418.40 111.21 380.06 122.00 348.00
C 127.04 381.58 139.49 417.57 169.00 438.00
C 167.35 433.80 168.06 427.95 166.00 424.00
C 161.72 421.71 158.43 415.42 161.00 411.00
C 146.55 395.78 136.20 376.37 132.00 356.00
C 131.24 353.03 129.88 349.30 129.00 346.00
C 121.54 325.45 117.51 303.33 114.00 282.00
C 106.81 303.38 102.22 325.55 103.00 349.00
C 95.97 348.76 91.78 342.12 88.00 337.00
C 86.24 356.96 93.13 379.91 96.00 398.00 Z"/>
</g>
<g fill="None" fill-opacity="0.0" stroke="#737475" stroke-opacity="0.76" stroke-width="0.3"><path d="
M 284.00 296.00 
C 286.02 293.98 289.02 292.15 291.00 290.00
C 291.67 289.12 292.22 287.85 293.00 287.00
C 289.80 289.74 286.78 292.75 284.00 296.00 Z"/>
</g>
<g fill="None" fill-opacity="0.0" stroke="#36D8F1" stroke-opacity="0.96" stroke-width="0.3"><path d="
M 394.00 301.00 
C 397.47 305.06 400.94 309.09 403.25 313.75 C 405.56 318.41 415.35 321.89 415.00 314.00
C 409.88 306.30 403.90 300.19 398.00 293.00
C 400.21 297.48 401.15 306.31 394.00 301.00 Z"/>
</g>
<g fill="None" fill-opacity="0.0" stroke="#00020A" stroke-opacity="0.41" stroke-width="0.3"><path d="
M 684.00 346.00 
C 684.00 345.96 685.00 346.00 685.00 346.00
L 685.00 309.00
C 685.00 309.00 684.00 308.96 684.00 309.00
C 684.00 321.33 684.00 333.67 684.00 346.00 Z"/>
</g>
<g fill="None" fill-opacity="0.0" stroke="#047CA2" stroke-opacity="0.93" stroke-width="0.3"><path d="
M 512.00 408.00 
C 526.38 401.37 535.16 386.55 544.75 372.75 C 554.34 358.94 562.65 340.04 564.00 324.00
C 556.47 355.35 536.97 386.87 512.00 408.00 Z"/>
</g>
<g fill="None" fill-opacity="0.0" stroke="#830187" stroke-opacity="1.00" stroke-width="0.3"><path d="
M 675.00 344.00 
C 675.57 338.08 675.64 331.00 675.00 325.00
C 675.01 331.33 675.00 337.67 675.00 344.00 Z"/>
</g>
<g fill="None" fill-opacity="0.0" stroke="#31CAE5" stroke-opacity="0.79" stroke-width="0.3"><path d="
M 584.00 327.00 
C 583.90 327.20 582.08 326.81 582.00 327.00
C 583.24 334.51 579.46 345.91 584.00 351.00
C 582.84 343.76 581.84 334.24 584.00 327.00 Z"/>
</g>
<g fill="None" fill-opacity="0.0" stroke="#21BCE1" stroke-opacity="0.82" stroke-width="0.3"><path d="
M 598.00 338.00 
C 593.29 340.70 587.65 345.45 585.00 350.00
C 589.00 347.49 592.24 343.99 596.00 341.00
C 598.31 346.73 593.91 353.56 597.00 359.00
C 597.17 351.94 598.62 345.25 598.00 338.00 Z"/>
</g>
<g fill="None" fill-opacity="0.0" stroke="#D2D4D5" stroke-opacity="0.79" stroke-width="0.3"><path d="
M 132.00 356.00 
C 132.04 355.65 132.99 355.18 133.00 355.00
C 131.86 351.91 130.16 348.81 129.00 346.00
C 129.88 349.30 131.24 353.03 132.00 356.00 Z"/>
</g>
<g fill="None" fill-opacity="0.0" stroke="#000000" stroke-opacity="0.00" stroke-width="0.3"><path d="
M 356.00 667.00 
C 356.04 667.00 356.00 668.00 356.00 668.00
L 685.00 668.00
L 685.00 346.00
C 685.00 346.00 684.00 345.96 684.00 346.00
C 684.00 429.33 641.46 511.06 582.75 569.75 C 524.04 628.45 439.06 667.00 356.00 667.00 Z"/>
</g>
<g fill="None" fill-opacity="0.0" stroke="#BABBBD" stroke-opacity="0.99" stroke-width="0.3"><path d="
M 132.00 356.00 
C 136.20 376.37 146.55 395.78 161.00 411.00
C 158.43 415.42 161.72 421.71 166.00 424.00
C 174.46 428.72 180.83 440.47 189.75 448.25 C 198.67 456.03 206.21 464.40 216.30 470.70 C 226.40 476.99 236.55 483.36 247.78 488.22 C 259.00 493.09 271.93 498.18 284.00 501.00
C 259.14 474.35 240.68 443.14 241.00 407.00
C 239.43 395.20 240.23 380.14 244.00 370.00
C 241.05 372.50 233.39 374.08 230.00 375.00
C 226.69 375.90 221.59 377.08 218.00 375.00
C 220.93 392.33 210.38 410.54 217.00 428.00
C 205.81 429.08 195.82 423.43 187.00 418.00
C 164.36 403.84 142.21 379.95 133.00 355.00
C 132.99 355.18 132.04 355.65 132.00 356.00 Z"/>
</g>
<g fill="None" fill-opacity="0.0" stroke="#000105" stroke-opacity="0.99" stroke-width="0.3"><path d="
M 298.00 413.00 
C 310.98 417.61 333.26 416.72 340.00 432.00
C 340.60 433.36 340.93 434.13 341.00 436.00
C 341.24 441.99 339.70 445.47 335.00 449.00
C 322.23 458.59 303.59 456.42 289.00 460.00
C 298.15 463.22 307.88 464.51 318.00 464.00
C 325.85 464.00 333.05 463.00 341.00 463.00
C 347.05 463.00 353.70 463.49 359.00 464.00
C 371.10 464.00 382.83 463.62 394.00 460.00
C 378.56 455.84 355.31 458.23 346.00 443.00
C 343.89 431.24 348.73 427.24 358.00 423.00
C 374.81 415.32 399.61 415.06 400.00 391.00
C 399.87 384.02 397.86 377.51 396.00 371.00
C 392.31 376.27 396.63 383.25 393.00 389.00
C 376.85 382.42 359.80 389.00 343.00 389.00
C 326.11 389.19 308.12 383.35 292.00 390.00
C 288.81 382.84 294.16 371.86 290.00 367.00
C 286.75 380.22 279.90 406.56 298.00 413.00 Z"/>
</g>
<g fill="None" fill-opacity="0.0" stroke="#000209" stroke-opacity="0.91" stroke-width="0.3"><path d="
M 11.00 369.00 
C 0.59 364.78 2.59 382.98 5.22 388.78 C 7.85 394.57 7.78 406.05 10.22 412.78 C 12.67 419.50 14.63 427.95 17.07 434.93 C 19.52 441.90 22.70 449.86 25.23 456.77 C 27.76 463.68 31.71 469.74 34.68 476.32 C 37.65 482.91 41.08 489.08 44.70 495.30 C 48.31 501.53 52.35 507.80 56.25 513.75 C 60.15 519.71 64.28 524.96 68.25 530.75 C 72.22 536.54 77.57 540.79 81.25 546.75 C 84.93 552.71 91.98 556.24 95.75 562.25 C 99.51 568.26 106.85 570.21 110.23 576.77 C 113.61 583.33 127.48 585.35 124.92 577.08 C 122.37 568.80 114.14 569.34 110.25 562.75 C 106.35 556.16 98.83 554.12 95.30 547.70 C 91.77 541.27 85.93 538.02 81.92 532.08 C 77.90 526.15 73.55 521.34 69.75 515.25 C 65.96 509.16 60.96 503.71 57.77 497.23 C 54.58 490.75 50.30 485.36 47.31 478.70 C 44.31 472.03 41.08 465.78 37.92 459.08 C 34.77 452.38 32.09 444.79 28.93 438.07 C 25.77 431.36 25.21 422.54 21.93 416.07 C 18.64 409.61 19.32 398.79 15.93 393.07 C 12.54 387.36 17.51 371.64 11.00 369.00 Z"/>
</g>
<g fill="None" fill-opacity="0.0" stroke="#02ACDC" stroke-opacity="0.99" stroke-width="0.3"><path d="
M 460.00 374.00 
C 458.42 374.34 455.88 375.39 454.00 376.00
C 464.52 390.51 464.71 410.71 461.00 428.00
C 461.84 427.99 464.88 429.91 467.00 430.00
C 480.19 428.35 488.07 422.36 498.00 416.00
C 499.06 409.71 493.13 394.38 489.25 389.75 C 485.38 385.11 482.66 369.71 476.00 369.00
C 470.99 371.88 465.80 373.69 460.00 374.00 Z"/>
</g>
<g fill="None" fill-opacity="0.0" stroke="#007BA2" stroke-opacity="0.99" stroke-width="0.3"><path d="
M 443.00 410.00 
C 443.34 412.72 446.26 419.64 444.33 424.33 C 442.40 429.02 443.19 433.90 441.32 438.32 C 439.46 442.74 438.61 445.64 437.00 450.00
C 441.62 455.92 433.81 462.50 429.77 467.77 C 425.73 473.04 422.72 480.99 420.00 487.00
C 439.71 474.04 454.30 452.27 460.00 430.00
C 460.27 428.95 460.72 428.72 461.00 428.00
C 464.71 410.71 464.52 390.51 454.00 376.00
C 455.88 375.39 458.42 374.34 460.00 374.00
C 454.62 374.29 444.60 374.84 441.00 370.00
C 444.07 382.58 444.98 397.01 443.00 410.00 Z"/>
</g>
<g fill="None" fill-opacity="0.0" stroke="#E1E1E1" stroke-opacity="0.99" stroke-width="0.3"><path d="
M 187.00 418.00 
C 195.82 423.43 205.81 429.08 217.00 428.00
C 210.38 410.54 220.93 392.33 218.00 375.00
C 221.59 377.08 226.69 375.90 230.00 375.00
C 224.20 375.61 217.97 373.51 213.00 371.00
C 207.81 371.31 203.30 379.65 200.75 383.75 C 198.21 387.86 193.03 394.03 191.98 398.98 C 190.92 403.92 185.15 412.93 187.00 418.00 Z"/>
</g>
<g fill="None" fill-opacity="0.0" stroke="#055F80" stroke-opacity="0.96" stroke-width="0.3"><path d="
M 567.00 444.00 
C 573.04 425.40 570.82 402.79 569.00 384.00
C 569.30 406.66 565.57 428.33 562.00 450.00
C 564.86 449.30 565.67 445.74 567.00 444.00 Z"/>
</g>
<g fill="None" fill-opacity="0.0" stroke="#04A2D2" stroke-opacity="0.99" stroke-width="0.3"><path d="
M 358.00 423.00 
C 355.99 424.57 353.48 428.24 350.00 429.00
C 354.60 432.53 349.73 440.21 346.00 443.00
C 355.31 458.23 378.56 455.84 394.00 460.00
C 382.83 463.62 371.10 464.00 359.00 464.00
C 358.00 464.00 357.00 464.00 356.00 464.00
C 359.38 464.33 364.80 465.84 368.00 467.00
C 361.59 475.00 348.00 470.78 344.00 481.00
C 342.33 480.76 343.83 478.15 342.00 478.00
C 343.49 481.58 342.00 489.06 342.00 493.00
C 347.20 489.10 356.60 492.62 362.02 489.02 C 367.45 485.43 374.21 484.89 379.69 481.69 C 385.18 478.50 390.43 476.01 396.00 473.00
C 417.26 461.53 436.19 440.46 442.00 417.00
C 440.47 416.82 441.01 414.18 439.00 415.00
C 435.04 427.43 420.62 433.71 408.00 432.00
C 420.43 417.64 404.31 403.43 400.00 391.00
C 399.61 415.06 374.81 415.32 358.00 423.00 Z"/>
</g>
<g fill="None" fill-opacity="0.0" stroke="#D5D9DB" stroke-opacity="0.99" stroke-width="0.3"><path d="
M 272.00 459.00 
C 287.94 477.65 317.35 495.00 342.00 495.00
C 341.81 494.92 342.00 493.50 342.00 493.00
C 342.00 489.06 343.49 481.58 342.00 478.00
C 340.86 477.04 339.94 475.67 338.00 475.00
C 331.31 472.69 324.39 465.58 318.00 464.00
C 307.88 464.51 298.15 463.22 289.00 460.00
C 303.59 456.42 322.23 458.59 335.00 449.00
C 335.48 448.43 335.61 447.57 336.00 447.00
C 336.18 441.56 331.95 434.21 333.00 428.00
C 335.58 428.99 337.43 431.04 340.00 432.00
C 333.26 416.72 310.98 417.61 298.00 413.00
C 293.88 437.42 261.39 438.46 248.00 421.00
C 252.26 435.40 262.17 447.49 272.00 459.00 Z"/>
</g>
<g fill="None" fill-opacity="0.0" stroke="#107AA8" stroke-opacity="0.95" stroke-width="0.3"><path d="
M 346.00 443.00 
C 349.73 440.21 354.60 432.53 350.00 429.00
C 353.48 428.24 355.99 424.57 358.00 423.00
C 348.73 427.24 343.89 431.24 346.00 443.00 Z"/>
</g>
<g fill="None" fill-opacity="0.0" stroke="#AFB2B5" stroke-opacity="0.96" stroke-width="0.3"><path d="
M 336.00 447.00 
C 337.91 444.19 340.71 439.23 341.00 436.00
C 340.93 434.13 340.60 433.36 340.00 432.00
C 337.43 431.04 335.58 428.99 333.00 428.00
C 331.95 434.21 336.18 441.56 336.00 447.00 Z"/>
</g>
<g fill="None" fill-opacity="0.0" stroke="#16B1D8" stroke-opacity="0.83" stroke-width="0.3"><path d="
M 460.00 430.00 
C 461.15 432.07 466.04 430.12 467.00 430.00
C 464.88 429.91 461.84 427.99 461.00 428.00
C 460.72 428.72 460.27 428.95 460.00 430.00 Z"/>
</g>
<g fill="None" fill-opacity="0.0" stroke="#BFC2C4" stroke-opacity="0.83" stroke-width="0.3"><path d="
M 336.00 447.00 
C 335.61 447.57 335.48 448.43 335.00 449.00
C 339.70 445.47 341.24 441.99 341.00 436.00
C 340.71 439.23 337.91 444.19 336.00 447.00 Z"/>
</g>
<g fill="None" fill-opacity="0.0" stroke="#0E618A" stroke-opacity="0.98" stroke-width="0.3"><path d="
M 318.00 464.00 
C 324.39 465.58 331.31 472.69 338.00 475.00
C 337.71 474.75 336.63 472.01 337.00 471.00
C 337.93 468.44 342.42 468.43 342.00 465.00
C 339.00 465.00 336.00 465.00 333.00 465.00
C 334.64 462.41 339.43 465.66 341.00 463.00
C 333.05 463.00 325.85 464.00 318.00 464.00 Z"/>
</g>
<g fill="None" fill-opacity="0.0" stroke="#076185" stroke-opacity="0.81" stroke-width="0.3"><path d="
M 337.00 471.00 
C 338.06 469.03 345.62 467.89 342.00 464.00
C 346.67 464.00 351.33 464.00 356.00 464.00
C 357.00 464.00 358.00 464.00 359.00 464.00
C 353.70 463.49 347.05 463.00 341.00 463.00
C 339.43 465.66 334.64 462.41 333.00 465.00
C 336.00 465.00 339.00 465.00 342.00 465.00
C 342.42 468.43 337.93 468.44 337.00 471.00 Z"/>
</g>
<g fill="None" fill-opacity="0.0" stroke="#0976A3" stroke-opacity="0.97" stroke-width="0.3"><path d="
M 337.00 471.00 
C 336.63 472.01 337.71 474.75 338.00 475.00
C 339.94 475.67 340.86 477.04 342.00 478.00
C 343.83 478.15 342.33 480.76 344.00 481.00
C 348.00 470.78 361.59 475.00 368.00 467.00
C 364.80 465.84 359.38 464.33 356.00 464.00
C 351.33 464.00 346.67 464.00 342.00 464.00
C 345.62 467.89 338.06 469.03 337.00 471.00 Z"/>
</g>
<g fill="None" fill-opacity="0.0" stroke="#21BEDF" stroke-opacity="0.96" stroke-width="0.3"><path d="
M 342.00 493.00 
C 342.00 493.50 341.81 494.92 342.00 495.00
C 363.25 495.00 379.91 485.33 396.00 473.00
C 390.43 476.01 385.18 478.50 379.69 481.69 C 374.21 484.89 367.45 485.43 362.02 489.02 C 356.60 492.62 347.20 489.10 342.00 493.00 Z"/>
</g>
<g fill="None" fill-opacity="0.0" stroke="#7B007C" stroke-opacity="1.00" stroke-width="0.3"><path d="
M 359.00 607.00 
C 352.33 607.00 345.67 607.00 339.00 607.00
C 345.23 607.60 352.71 607.61 359.00 607.00 Z"/>
</g>
<g fill="None" fill-opacity="0.0" stroke="#000209" stroke-opacity="0.38" stroke-width="0.3"><path d="
M 347.00 668.00 
L 356.00 668.00
C 356.00 668.00 356.04 667.00 356.00 667.00
C 353.15 667.00 349.10 666.28 347.00 668.00 Z"/>
</g>
<g fill="#000000" fill-opacity="0.00" stroke="None">
<path d="
M 0.00 297.00 
C 7.07 244.14 21.72 190.77 52.00 146.00
C 64.04 148.99 54.10 161.95 49.69 169.69 C 45.29 177.44 40.50 186.93 36.69 195.69 C 32.89 204.46 29.57 214.74 26.02 224.02 C 22.48 233.31 19.63 244.83 17.67 254.67 C 15.72 264.52 12.47 278.01 11.67 287.67 C 10.87 297.33 12.52 318.16 0.00 307.00
L 0.00 668.00
L 315.00 668.00
C 305.79 666.65 295.38 664.57 285.93 663.07 C 276.47 661.57 266.77 659.77 257.78 657.22 C 248.79 654.67 239.81 653.29 231.32 649.68 C 222.83 646.07 214.83 644.99 206.78 640.22 C 198.72 635.46 191.35 635.94 183.75 629.25 C 176.16 622.55 171.31 624.22 162.75 616.25 C 154.19 608.27 167.66 605.09 174.70 612.30 C 181.74 619.51 189.19 618.97 196.69 624.31 C 204.20 629.64 211.85 631.17 220.08 634.92 C 228.30 638.68 236.38 640.87 245.07 643.93 C 253.77 646.98 262.74 648.88 272.02 650.98 C 281.31 653.07 292.44 654.38 302.00 656.00
C 284.16 649.66 269.19 633.42 252.25 624.75 C 235.32 616.07 222.05 600.95 207.25 588.75 C 192.45 576.56 179.08 561.42 167.00 547.00
C 158.03 540.33 150.29 532.85 142.25 524.75 C 134.21 516.65 126.43 509.39 119.75 500.25 C 113.07 491.10 105.92 482.92 100.23 472.77 C 94.54 462.62 88.09 452.88 83.23 441.77 C 78.37 430.66 73.96 419.90 70.22 407.78 C 66.48 395.65 63.43 383.14 61.07 369.93 C 58.72 356.72 58.54 340.15 58.00 326.00 C 57.46 311.85 58.76 293.80 60.33 280.33 C 61.90 266.86 65.96 254.39 68.93 241.93 C 71.89 229.46 77.64 219.19 81.77 207.77 C 85.90 196.36 96.68 185.63 86.75 177.25 C 76.83 168.87 73.96 159.67 68.68 148.32 C 63.40 136.97 63.91 120.05 65.78 107.78 C 67.65 95.51 71.62 83.31 77.77 72.77 C 83.92 62.23 89.47 54.21 98.75 45.75 C 108.03 37.30 115.57 32.38 127.22 27.22 C 138.88 22.07 154.46 20.78 168.00 21.00 C 181.54 21.22 194.25 24.79 206.00 31.00
C 214.40 30.53 222.73 21.35 232.02 20.02 C 241.32 18.69 249.78 12.25 259.68 10.68 C 269.57 9.10 279.52 5.23 290.02 4.02 C 300.53 2.82 313.58 0.67 324.00 0.00
L 0.00 0.00
L 0.00 297.00
M 11.00 369.00 
C 17.51 371.64 12.54 387.36 15.93 393.07 C 19.32 398.79 18.64 409.61 21.93 416.07 C 25.21 422.54 25.77 431.36 28.93 438.07 C 32.09 444.79 34.77 452.38 37.92 459.08 C 41.08 465.78 44.31 472.03 47.31 478.70 C 50.30 485.36 54.58 490.75 57.77 497.23 C 60.96 503.71 65.96 509.16 69.75 515.25 C 73.55 521.34 77.90 526.15 81.92 532.08 C 85.93 538.02 91.77 541.27 95.30 547.70 C 98.83 554.12 106.35 556.16 110.25 562.75 C 114.14 569.34 122.37 568.80 124.92 577.08 C 127.48 585.35 113.61 583.33 110.23 576.77 C 106.85 570.21 99.51 568.26 95.75 562.25 C 91.98 556.24 84.93 552.71 81.25 546.75 C 77.57 540.79 72.22 536.54 68.25 530.75 C 64.28 524.96 60.15 519.71 56.25 513.75 C 52.35 507.80 48.31 501.53 44.70 495.30 C 41.08 489.08 37.65 482.91 34.68 476.32 C 31.71 469.74 27.76 463.68 25.23 456.77 C 22.70 449.86 19.52 441.90 17.07 434.93 C 14.63 427.95 12.67 419.50 10.22 412.78 C 7.78 406.05 7.85 394.57 5.22 388.78 C 2.59 382.98 0.59 364.78 11.00 369.00 Z"/>
</g>
<g fill="#FC00FC" fill-opacity="0.98" stroke="None">
<path d="
M 206.00 31.00 
C 217.37 37.01 222.34 51.12 236.07 43.07 C 249.81 35.02 259.92 36.11 274.02 31.02 C 288.13 25.94 302.03 25.29 317.07 23.07 C 332.12 20.86 349.13 22.60 364.07 23.93 C 379.01 25.26 395.24 24.64 409.02 29.98 C 422.81 35.31 433.68 33.82 446.70 42.31 C 459.71 50.79 470.20 36.38 480.00 30.00
C 471.83 29.92 464.84 20.70 455.99 20.01 C 447.14 19.32 439.31 11.76 429.98 11.02 C 420.65 10.29 411.73 5.47 402.00 5.00 C 392.27 4.54 381.22 1.47 372.00 0.00
L 353.00 0.00
C 347.74 1.63 339.19 1.69 334.00 0.00
L 324.00 0.00
C 313.58 0.67 300.53 2.82 290.02 4.02 C 279.52 5.23 269.57 9.10 259.68 10.68 C 249.78 12.25 241.32 18.69 232.02 20.02 C 222.73 21.35 214.40 30.53 206.00 31.00 Z"/>
</g>
<g fill="#FE00FE" fill-opacity="0.80" stroke="None">
<path d="
M 353.00 0.00 
L 334.00 0.00
C 339.19 1.69 347.74 1.63 353.00 0.00 Z"/>
</g>
<g fill="#000000" fill-opacity="0.00" stroke="None">
<path d="
M 480.00 30.00 
C 505.15 13.61 546.68 19.08 571.08 33.92 C 595.49 48.76 612.78 71.79 618.00 100.00 C 623.21 128.22 619.29 167.01 592.00 184.00
C 593.14 187.25 595.34 190.79 598.00 193.00
C 607.27 200.77 614.02 211.09 620.75 221.25 C 627.49 231.40 634.97 241.49 640.77 252.23 C 646.57 262.97 654.55 273.68 658.92 285.08 C 663.30 296.47 672.67 308.42 675.00 320.00
C 675.02 303.39 671.47 284.13 669.67 268.33 C 667.87 252.53 662.32 237.20 658.07 222.93 C 653.83 208.65 646.74 195.47 641.23 182.77 C 635.72 170.07 620.25 155.29 633.00 146.00
C 663.80 194.68 682.16 250.51 684.00 309.00
C 684.00 308.96 685.00 309.00 685.00 309.00
L 685.00 0.00
L 372.00 0.00
C 381.22 1.47 392.27 4.54 402.00 5.00 C 411.73 5.47 420.65 10.29 429.98 11.02 C 439.31 11.76 447.14 19.32 455.99 20.01 C 464.84 20.70 471.83 29.92 480.00 30.00 Z"/>
</g>
<g fill="#000001" fill-opacity="1.00" stroke="None">
<path d="
M 167.00 547.00 
C 216.34 583.68 276.54 607.00 339.00 607.00
C 345.67 607.00 352.33 607.00 359.00 607.00
C 386.14 607.00 417.77 598.20 442.02 589.02 C 466.27 579.85 487.55 567.54 508.25 553.25 C 528.95 538.96 543.95 524.09 560.75 504.75 C 577.55 485.42 588.86 465.62 599.92 441.92 C 610.99 418.23 619.73 391.96 623.78 364.78 C 627.83 337.60 628.84 297.74 622.07 270.93 C 615.31 244.11 612.13 216.80 598.00 193.00
C 595.34 190.79 593.14 187.25 592.00 184.00
C 619.29 167.01 623.21 128.22 618.00 100.00 C 612.78 71.79 595.49 48.76 571.08 33.92 C 546.68 19.08 505.15 13.61 480.00 30.00
C 470.20 36.38 459.71 50.79 446.70 42.31 C 433.68 33.82 422.81 35.31 409.02 29.98 C 395.24 24.64 379.01 25.26 364.07 23.93 C 349.13 22.60 332.12 20.86 317.07 23.07 C 302.03 25.29 288.13 25.94 274.02 31.02 C 259.92 36.11 249.81 35.02 236.07 43.07 C 222.34 51.12 217.37 37.01 206.00 31.00
C 194.25 24.79 181.54 21.22 168.00 21.00 C 154.46 20.78 138.88 22.07 127.22 27.22 C 115.57 32.38 108.03 37.30 98.75 45.75 C 89.47 54.21 83.92 62.23 77.77 72.77 C 71.62 83.31 67.65 95.51 65.78 107.78 C 63.91 120.05 63.40 136.97 68.68 148.32 C 73.96 159.67 76.83 168.87 86.75 177.25 C 96.68 185.63 85.90 196.36 81.77 207.77 C 77.64 219.19 71.89 229.46 68.93 241.93 C 65.96 254.39 61.90 266.86 60.33 280.33 C 58.76 293.80 57.46 311.85 58.00 326.00 C 58.54 340.15 58.72 356.72 61.07 369.93 C 63.43 383.14 66.48 395.65 70.22 407.78 C 73.96 419.90 78.37 430.66 83.23 441.77 C 88.09 452.88 94.54 462.62 100.23 472.77 C 105.92 482.92 113.07 491.10 119.75 500.25 C 126.43 509.39 134.21 516.65 142.25 524.75 C 150.29 532.85 158.03 540.33 167.00 547.00
M 579.00 55.00 
C 593.94 69.94 605.00 87.27 605.00 109.00
C 605.33 112.38 605.83 115.54 605.00 119.00
C 604.88 120.32 605.09 121.67 605.00 123.00
C 603.39 92.63 585.64 64.93 553.99 59.01 C 522.35 53.09 496.87 74.24 478.00 97.00
C 498.60 111.71 517.11 127.08 531.25 148.75 C 545.40 170.41 557.67 195.65 568.00 218.00
C 571.23 210.64 566.80 201.44 568.00 195.00
C 589.81 238.39 603.20 285.37 600.00 336.00
C 598.54 374.22 590.26 413.65 567.00 444.00
C 565.67 445.74 564.86 449.30 562.00 450.00
C 565.57 428.33 569.30 406.66 569.00 384.00
C 569.00 372.34 567.29 361.34 566.00 350.00
C 555.53 380.72 547.17 416.54 518.00 437.00
C 518.63 431.79 523.90 425.94 521.00 421.00
C 490.51 460.81 448.48 490.59 401.00 502.00
C 416.96 487.77 428.99 469.40 437.00 450.00
C 438.61 445.64 439.46 442.74 441.32 438.32 C 443.19 433.90 442.40 429.02 444.33 424.33 C 446.26 419.64 443.34 412.72 443.00 410.00
C 442.62 412.52 442.60 414.57 442.00 417.00
C 436.19 440.46 417.26 461.53 396.00 473.00
C 379.91 485.33 363.25 495.00 342.00 495.00
C 317.35 495.00 287.94 477.65 272.00 459.00
C 256.16 443.17 243.99 429.41 241.00 407.00
C 240.68 443.14 259.14 474.35 284.00 501.00
C 271.93 498.18 259.00 493.09 247.78 488.22 C 236.55 483.36 226.40 476.99 216.30 470.70 C 206.21 464.40 198.67 456.03 189.75 448.25 C 180.83 440.47 174.46 428.72 166.00 424.00
C 168.06 427.95 167.35 433.80 169.00 438.00
C 139.49 417.57 127.04 381.58 122.00 348.00
C 111.21 380.06 119.76 418.40 123.00 450.00
C 111.32 434.07 102.49 416.45 96.00 398.00
C 73.21 331.40 86.33 254.80 117.00 194.00
C 123.00 198.44 112.34 210.56 119.00 216.00
C 137.08 169.23 166.65 124.35 210.00 96.00
C 198.92 97.09 193.01 80.71 184.75 74.25 C 176.49 67.79 166.02 59.14 153.78 58.22 C 141.54 57.31 124.11 57.83 113.75 64.75 C 103.39 71.68 95.90 76.73 90.08 88.08 C 84.26 99.43 82.02 113.54 81.00 126.00
C 75.73 102.60 84.18 76.25 102.00 60.00
C 130.95 31.05 176.87 21.69 210.00 50.00
C 216.54 55.59 224.97 63.77 229.00 71.00
C 229.49 69.22 231.62 68.77 233.00 68.00
C 265.40 50.08 305.48 43.00 343.00 43.00
C 384.00 43.00 422.77 53.24 459.00 70.00
C 479.44 25.21 547.43 20.09 579.00 55.00 Z"/>
</g>
<g fill="#4AF4FC" fill-opacity="1.00" stroke="None">
<path d="
M 343.00 43.00 
C 343.00 49.33 343.00 55.67 343.00 62.00
C 356.99 65.46 371.83 61.76 385.67 66.33 C 399.51 70.90 383.33 86.39 379.25 95.25 C 375.16 104.10 366.81 115.38 362.08 125.08 C 357.35 134.79 349.81 145.70 344.75 155.75 C 339.68 165.79 333.63 176.06 328.08 186.08 C 322.53 196.09 315.48 206.46 311.00 217.00
C 330.33 217.00 349.67 217.00 369.00 217.00
C 363.83 225.16 358.14 234.50 351.75 241.75 C 345.36 249.00 341.08 260.00 334.70 266.70 C 328.31 273.39 313.53 286.82 329.00 287.00 C 344.47 287.18 355.90 286.87 371.00 287.00
C 363.32 301.27 340.04 305.90 343.00 326.00 C 345.96 346.10 340.37 368.86 343.00 389.00
C 359.80 389.00 376.85 382.42 393.00 389.00
C 396.63 383.25 392.31 376.27 396.00 371.00
C 397.86 377.51 399.87 384.02 400.00 391.00
C 404.31 403.43 420.43 417.64 408.00 432.00
C 420.62 433.71 435.04 427.43 439.00 415.00
C 441.01 414.18 440.47 416.82 442.00 417.00
C 442.60 414.57 442.62 412.52 443.00 410.00
C 444.98 397.01 444.07 382.58 441.00 370.00
C 436.09 349.85 426.40 331.14 415.00 314.00
C 415.35 321.89 405.56 318.41 403.25 313.75 C 400.94 309.09 397.47 305.06 394.00 301.00
C 388.71 294.81 373.45 284.84 381.00 279.00
C 380.57 274.84 377.50 271.82 376.00 268.00
C 394.56 265.10 391.81 241.82 404.75 231.75 C 417.69 221.69 447.30 222.89 445.00 245.00
C 457.71 254.74 465.10 271.15 477.25 281.75 C 489.39 292.35 502.49 309.79 502.00 326.00 C 501.51 342.21 490.36 360.74 476.00 369.00
C 482.66 369.71 485.38 385.11 489.25 389.75 C 493.13 394.38 499.06 409.71 498.00 416.00
C 501.33 413.87 507.88 411.48 512.00 408.00
C 536.97 386.87 556.47 355.35 564.00 324.00
C 567.73 308.46 567.36 291.60 571.00 277.00
C 575.49 293.43 581.29 309.55 582.00 327.00
C 582.08 326.81 583.90 327.20 584.00 327.00
C 584.54 325.92 584.70 324.23 585.00 323.00
C 587.40 322.95 589.04 324.97 591.00 326.00
C 590.33 323.06 592.09 320.82 592.00 318.00
C 597.62 322.27 596.60 330.73 600.00 336.00
C 603.20 285.37 589.81 238.39 568.00 195.00
C 566.80 201.44 571.23 210.64 568.00 218.00
C 557.67 195.65 545.40 170.41 531.25 148.75 C 517.11 127.08 498.60 111.71 478.00 97.00
C 466.22 88.59 482.81 77.01 491.25 69.25 C 499.69 61.49 512.81 52.76 526.02 52.02 C 539.24 51.29 558.95 52.67 571.00 59.00
C 567.26 53.51 575.89 55.18 579.00 55.00
C 547.43 20.09 479.44 25.21 459.00 70.00
C 422.77 53.24 384.00 43.00 343.00 43.00 Z"/>
</g>
<g fill="#0BEEF9" fill-opacity="1.00" stroke="None">
<path d="
M 102.00 60.00 
C 105.09 60.71 103.65 64.85 104.00 67.00
C 134.40 41.27 181.74 48.70 207.00 79.00
C 208.17 75.50 208.99 70.91 206.00 68.00
C 211.70 64.86 216.89 54.74 210.00 50.00
C 176.87 21.69 130.95 31.05 102.00 60.00 Z"/>
</g>
<g fill="#FBFCFC" fill-opacity="1.00" stroke="None">
<path d="
M 233.00 68.00 
C 234.93 71.53 240.16 73.90 244.00 76.00
C 240.73 79.23 236.07 80.79 232.00 83.00
C 224.49 86.84 217.01 91.34 210.00 96.00
C 166.65 124.35 137.08 169.23 119.00 216.00
C 112.34 210.56 123.00 198.44 117.00 194.00
C 86.33 254.80 73.21 331.40 96.00 398.00
C 93.13 379.91 86.24 356.96 88.00 337.00
C 91.78 342.12 95.97 348.76 103.00 349.00
C 102.22 325.55 106.81 303.38 114.00 282.00
C 117.51 303.33 121.54 325.45 129.00 346.00
C 130.16 348.81 131.86 351.91 133.00 355.00
C 142.21 379.95 164.36 403.84 187.00 418.00
C 185.15 412.93 190.92 403.92 191.98 398.98 C 193.03 394.03 198.21 387.86 200.75 383.75 C 203.30 379.65 207.81 371.31 213.00 371.00
C 197.71 363.27 185.30 344.07 185.00 327.00 C 184.70 309.93 198.15 292.06 211.75 281.75 C 225.34 271.43 230.32 250.93 246.00 243.00
C 245.45 243.14 242.13 242.01 241.00 244.00
C 240.02 221.61 269.13 221.59 282.08 231.92 C 295.03 242.25 288.24 273.20 311.00 268.00
C 305.20 273.66 308.05 284.45 300.75 288.75 C 293.46 293.06 292.40 304.64 284.00 302.00
C 283.96 297.04 288.43 293.80 291.00 290.00
C 289.02 292.15 286.02 293.98 284.00 296.00
C 265.49 317.66 253.68 343.94 244.00 370.00
C 240.23 380.14 239.43 395.20 241.00 407.00
C 243.99 429.41 256.16 443.17 272.00 459.00
C 262.17 447.49 252.26 435.40 248.00 421.00
C 261.39 438.46 293.88 437.42 298.00 413.00
C 279.90 406.56 286.75 380.22 290.00 367.00
C 294.16 371.86 288.81 382.84 292.00 390.00
C 308.12 383.35 326.11 389.19 343.00 389.00
C 340.37 368.86 345.96 346.10 343.00 326.00 C 340.04 305.90 363.32 301.27 371.00 287.00
C 355.90 286.87 344.47 287.18 329.00 287.00 C 313.53 286.82 328.31 273.39 334.70 266.70 C 341.08 260.00 345.36 249.00 351.75 241.75 C 358.14 234.50 363.83 225.16 369.00 217.00
C 349.67 217.00 330.33 217.00 311.00 217.00
C 315.48 206.46 322.53 196.09 328.08 186.08 C 333.63 176.06 339.68 165.79 344.75 155.75 C 349.81 145.70 357.35 134.79 362.08 125.08 C 366.81 115.38 375.16 104.10 379.25 95.25 C 383.33 86.39 399.51 70.90 385.67 66.33 C 371.83 61.76 356.99 65.46 343.00 62.00
C 343.00 55.67 343.00 49.33 343.00 43.00
C 305.48 43.00 265.40 50.08 233.00 68.00 Z"/>
</g>
<g fill="#16D5F3" fill-opacity="0.98" stroke="None">
<path d="
M 102.00 60.00 
C 84.18 76.25 75.73 102.60 81.00 126.00
C 82.02 113.54 84.26 99.43 90.08 88.08 C 95.90 76.73 103.39 71.68 113.75 64.75 C 124.11 57.83 141.54 57.31 153.78 58.22 C 166.02 59.14 176.49 67.79 184.75 74.25 C 193.01 80.71 198.92 97.09 210.00 96.00
C 217.01 91.34 224.49 86.84 232.00 83.00
C 230.95 79.25 230.94 74.47 229.00 71.00
C 224.97 63.77 216.54 55.59 210.00 50.00
C 216.89 54.74 211.70 64.86 206.00 68.00
C 208.99 70.91 208.17 75.50 207.00 79.00
C 181.74 48.70 134.40 41.27 104.00 67.00
C 103.65 64.85 105.09 60.71 102.00 60.00 Z"/>
</g>
<g fill="#0BC1E2" fill-opacity="0.99" stroke="None">
<path d="
M 478.00 97.00 
C 496.87 74.24 522.35 53.09 553.99 59.01 C 585.64 64.93 603.39 92.63 605.00 123.00
C 605.09 121.67 604.88 120.32 605.00 119.00
C 605.29 115.73 605.00 112.29 605.00 109.00
C 605.00 87.27 593.94 69.94 579.00 55.00
C 575.89 55.18 567.26 53.51 571.00 59.00
C 558.95 52.67 539.24 51.29 526.02 52.02 C 512.81 52.76 499.69 61.49 491.25 69.25 C 482.81 77.01 466.22 88.59 478.00 97.00 Z"/>
</g>
<g fill="#C1CAD0" fill-opacity="0.99" stroke="None">
<path d="
M 229.00 71.00 
C 230.94 74.47 230.95 79.25 232.00 83.00
C 236.07 80.79 240.73 79.23 244.00 76.00
C 240.16 73.90 234.93 71.53 233.00 68.00
C 231.62 68.77 229.49 69.22 229.00 71.00 Z"/>
</g>
<g fill="#056A7C" fill-opacity="0.77" stroke="None">
<path d="
M 605.00 119.00 
C 605.83 115.54 605.33 112.38 605.00 109.00
C 605.00 112.29 605.29 115.73 605.00 119.00 Z"/>
</g>
<g fill="#000209" fill-opacity="0.91" stroke="None">
<path d="
M 0.00 297.00 
L 0.00 307.00
C 12.52 318.16 10.87 297.33 11.67 287.67 C 12.47 278.01 15.72 264.52 17.67 254.67 C 19.63 244.83 22.48 233.31 26.02 224.02 C 29.57 214.74 32.89 204.46 36.69 195.69 C 40.50 186.93 45.29 177.44 49.69 169.69 C 54.10 161.95 64.04 148.99 52.00 146.00
C 21.72 190.77 7.07 244.14 0.00 297.00 Z"/>
</g>
<g fill="#01030B" fill-opacity="0.94" stroke="None">
<path d="
M 675.00 320.00 
C 675.00 321.67 675.00 323.33 675.00 325.00
C 675.64 331.00 675.57 338.08 675.00 344.00
C 675.00 433.45 628.00 515.06 561.25 575.25 C 494.49 635.44 393.73 671.51 302.00 656.00
C 292.44 654.38 281.31 653.07 272.02 650.98 C 262.74 648.88 253.77 646.98 245.07 643.93 C 236.38 640.87 228.30 638.68 220.08 634.92 C 211.85 631.17 204.20 629.64 196.69 624.31 C 189.19 618.97 181.74 619.51 174.70 612.30 C 167.66 605.09 154.19 608.27 162.75 616.25 C 171.31 624.22 176.16 622.55 183.75 629.25 C 191.35 635.94 198.72 635.46 206.78 640.22 C 214.83 644.99 222.83 646.07 231.32 649.68 C 239.81 653.29 248.79 654.67 257.78 657.22 C 266.77 659.77 276.47 661.57 285.93 663.07 C 295.38 664.57 305.79 666.65 315.00 668.00
L 347.00 668.00
C 349.10 666.28 353.15 667.00 356.00 667.00
C 439.06 667.00 524.04 628.45 582.75 569.75 C 641.46 511.06 684.00 429.33 684.00 346.00
C 684.00 333.67 684.00 321.33 684.00 309.00
C 682.16 250.51 663.80 194.68 633.00 146.00
C 620.25 155.29 635.72 170.07 641.23 182.77 C 646.74 195.47 653.83 208.65 658.07 222.93 C 662.32 237.20 667.87 252.53 669.67 268.33 C 671.47 284.13 675.02 303.39 675.00 320.00 Z"/>
</g>
<g fill="#FD00FD" fill-opacity="0.99" stroke="None">
<path d="
M 359.00 607.00 
C 352.71 607.61 345.23 607.60 339.00 607.00
C 276.54 607.00 216.34 583.68 167.00 547.00
C 179.08 561.42 192.45 576.56 207.25 588.75 C 222.05 600.95 235.32 616.07 252.25 624.75 C 269.19 633.42 284.16 649.66 302.00 656.00
C 393.73 671.51 494.49 635.44 561.25 575.25 C 628.00 515.06 675.00 433.45 675.00 344.00
C 675.00 337.67 675.01 331.33 675.00 325.00
C 675.00 323.33 675.00 321.67 675.00 320.00
C 672.67 308.42 663.30 296.47 658.92 285.08 C 654.55 273.68 646.57 262.97 640.77 252.23 C 634.97 241.49 627.49 231.40 620.75 221.25 C 614.02 211.09 607.27 200.77 598.00 193.00
C 612.13 216.80 615.31 244.11 622.07 270.93 C 628.84 297.74 627.83 337.60 623.78 364.78 C 619.73 391.96 610.99 418.23 599.92 441.92 C 588.86 465.62 577.55 485.42 560.75 504.75 C 543.95 524.09 528.95 538.96 508.25 553.25 C 487.55 567.54 466.27 579.85 442.02 589.02 C 417.77 598.20 386.14 607.00 359.00 607.00 Z"/>
</g>
<g fill="#D3D6D8" fill-opacity="0.98" stroke="None">
<path d="
M 246.00 243.00 
C 252.83 239.55 260.48 238.91 268.07 240.93 C 275.66 242.95 278.30 246.36 283.92 252.08 C 289.54 257.81 287.42 266.58 289.00 274.00 C 290.58 281.42 303.01 278.45 293.00 287.00
C 292.22 287.85 291.67 289.12 291.00 290.00
C 288.43 293.80 283.96 297.04 284.00 302.00
C 292.40 304.64 293.46 293.06 300.75 288.75 C 308.05 284.45 305.20 273.66 311.00 268.00
C 288.24 273.20 295.03 242.25 282.08 231.92 C 269.13 221.59 240.02 221.61 241.00 244.00
C 242.13 242.01 245.45 243.14 246.00 243.00 Z"/>
</g>
<g fill="#09BEEB" fill-opacity="0.99" stroke="None">
<path d="
M 394.00 301.00 
C 401.15 306.31 400.21 297.48 398.00 293.00
C 396.28 289.52 393.01 285.10 389.00 284.00
C 402.42 276.38 393.70 256.82 405.08 248.08 C 416.46 239.35 432.78 236.72 445.00 245.00
C 447.30 222.89 417.69 221.69 404.75 231.75 C 391.81 241.82 394.56 265.10 376.00 268.00
C 377.50 271.82 380.57 274.84 381.00 279.00
C 373.45 284.84 388.71 294.81 394.00 301.00 Z"/>
</g>
<g fill="#000002" fill-opacity="0.99" stroke="None">
<path d="
M 246.00 243.00 
C 230.32 250.93 225.34 271.43 211.75 281.75 C 198.15 292.06 184.70 309.93 185.00 327.00 C 185.30 344.07 197.71 363.27 213.00 371.00
C 217.97 373.51 224.20 375.61 230.00 375.00
C 233.39 374.08 241.05 372.50 244.00 370.00
C 253.68 343.94 265.49 317.66 284.00 296.00
C 286.78 292.75 289.80 289.74 293.00 287.00
C 303.01 278.45 290.58 281.42 289.00 274.00 C 287.42 266.58 289.54 257.81 283.92 252.08 C 278.30 246.36 275.66 242.95 268.07 240.93 C 260.48 238.91 252.83 239.55 246.00 243.00
M 244.00 275.00 
C 238.78 292.67 260.55 310.38 274.00 295.00
C 270.42 306.00 256.88 311.17 246.92 305.08 C 236.97 298.98 236.04 282.72 244.00 275.00
M 267.00 279.00 
C 271.67 281.14 267.82 289.88 262.78 287.22 C 257.73 284.56 261.41 276.44 267.00 279.00 Z"/>
</g>
<g fill="#000002" fill-opacity="0.99" stroke="None">
<path d="
M 398.00 293.00 
C 403.90 300.19 409.88 306.30 415.00 314.00
C 426.40 331.14 436.09 349.85 441.00 370.00
C 444.60 374.84 454.62 374.29 460.00 374.00
C 465.80 373.69 470.99 371.88 476.00 369.00
C 490.36 360.74 501.51 342.21 502.00 326.00 C 502.49 309.79 489.39 292.35 477.25 281.75 C 465.10 271.15 457.71 254.74 445.00 245.00
C 432.78 236.72 416.46 239.35 405.08 248.08 C 393.70 256.82 402.42 276.38 389.00 284.00
C 393.01 285.10 396.28 289.52 398.00 293.00
M 412.00 292.00 
C 420.93 311.25 448.04 295.36 443.00 277.00
C 451.85 285.10 448.23 300.93 437.92 305.92 C 427.62 310.92 412.79 304.07 412.00 292.00
M 423.00 278.00 
C 428.61 279.14 426.51 290.76 420.33 288.67 C 414.14 286.57 417.45 276.87 423.00 278.00 Z"/>
</g>
<g fill="#33E3EA" fill-opacity="0.98" stroke="None">
<path d="
M 244.00 275.00 
C 236.04 282.72 236.97 298.98 246.92 305.08 C 256.88 311.17 270.42 306.00 274.00 295.00
C 260.55 310.38 238.78 292.67 244.00 275.00 Z"/>
</g>
<g fill="#2BE3EA" fill-opacity="0.98" stroke="None">
<path d="
M 412.00 292.00 
C 412.79 304.07 427.62 310.92 437.92 305.92 C 448.23 300.93 451.85 285.10 443.00 277.00
C 448.04 295.36 420.93 311.25 412.00 292.00 Z"/>
</g>
<g fill="#27BCDC" fill-opacity="0.99" stroke="None">
<path d="
M 564.00 324.00 
C 562.65 340.04 554.34 358.94 544.75 372.75 C 535.16 386.55 526.38 401.37 512.00 408.00
C 507.88 411.48 501.33 413.87 498.00 416.00
C 488.07 422.36 480.19 428.35 467.00 430.00
C 466.04 430.12 461.15 432.07 460.00 430.00
C 454.30 452.27 439.71 474.04 420.00 487.00
C 422.72 480.99 425.73 473.04 429.77 467.77 C 433.81 462.50 441.62 455.92 437.00 450.00
C 428.99 469.40 416.96 487.77 401.00 502.00
C 448.48 490.59 490.51 460.81 521.00 421.00
C 523.90 425.94 518.63 431.79 518.00 437.00
C 547.17 416.54 555.53 380.72 566.00 350.00
C 567.29 361.34 569.00 372.34 569.00 384.00
C 570.82 402.79 573.04 425.40 567.00 444.00
C 590.26 413.65 598.54 374.22 600.00 336.00
C 596.60 330.73 597.62 322.27 592.00 318.00
C 592.09 320.82 590.33 323.06 591.00 326.00
C 589.04 324.97 587.40 322.95 585.00 323.00
C 584.70 324.23 584.54 325.92 584.00 327.00
C 581.84 334.24 582.84 343.76 584.00 351.00
C 579.46 345.91 583.24 334.51 582.00 327.00
C 581.29 309.55 575.49 293.43 571.00 277.00
C 567.36 291.60 567.73 308.46 564.00 324.00
M 598.00 338.00 
C 598.62 345.25 597.17 351.94 597.00 359.00
C 593.91 353.56 598.31 346.73 596.00 341.00
C 592.24 343.99 589.00 347.49 585.00 350.00
C 587.65 345.45 593.29 340.70 598.00 338.00 Z"/>
</g>
<g fill="#E2E6E7" fill-opacity="0.98" stroke="None">
<path d="
M 423.00 278.00 
C 417.45 276.87 414.14 286.57 420.33 288.67 C 426.51 290.76 428.61 279.14 423.00 278.00 Z"/>
</g>
<g fill="#DFE1E4" fill-opacity="0.97" stroke="None">
<path d="
M 267.00 279.00 
C 261.41 276.44 257.73 284.56 262.78 287.22 C 267.82 289.88 271.67 281.14 267.00 279.00 Z"/>
</g>
<g fill="#D6D8D9" fill-opacity="0.98" stroke="None">
<path d="
M 96.00 398.00 
C 102.49 416.45 111.32 434.07 123.00 450.00
C 119.76 418.40 111.21 380.06 122.00 348.00
C 127.04 381.58 139.49 417.57 169.00 438.00
C 167.35 433.80 168.06 427.95 166.00 424.00
C 161.72 421.71 158.43 415.42 161.00 411.00
C 146.55 395.78 136.20 376.37 132.00 356.00
C 131.24 353.03 129.88 349.30 129.00 346.00
C 121.54 325.45 117.51 303.33 114.00 282.00
C 106.81 303.38 102.22 325.55 103.00 349.00
C 95.97 348.76 91.78 342.12 88.00 337.00
C 86.24 356.96 93.13 379.91 96.00 398.00 Z"/>
</g>
<g fill="#737475" fill-opacity="0.76" stroke="None">
<path d="
M 284.00 296.00 
C 286.02 293.98 289.02 292.15 291.00 290.00
C 291.67 289.12 292.22 287.85 293.00 287.00
C 289.80 289.74 286.78 292.75 284.00 296.00 Z"/>
</g>
<g fill="#36D8F1" fill-opacity="0.96" stroke="None">
<path d="
M 394.00 301.00 
C 397.47 305.06 400.94 309.09 403.25 313.75 C 405.56 318.41 415.35 321.89 415.00 314.00
C 409.88 306.30 403.90 300.19 398.00 293.00
C 400.21 297.48 401.15 306.31 394.00 301.00 Z"/>
</g>
<g fill="#00020A" fill-opacity="0.41" stroke="None">
<path d="
M 684.00 346.00 
C 684.00 345.96 685.00 346.00 685.00 346.00
L 685.00 309.00
C 685.00 309.00 684.00 308.96 684.00 309.00
C 684.00 321.33 684.00 333.67 684.00 346.00 Z"/>
</g>
<g fill="#047CA2" fill-opacity="0.93" stroke="None">
<path d="
M 512.00 408.00 
C 526.38 401.37 535.16 386.55 544.75 372.75 C 554.34 358.94 562.65 340.04 564.00 324.00
C 556.47 355.35 536.97 386.87 512.00 408.00 Z"/>
</g>
<g fill="#830187" fill-opacity="1.00" stroke="None">
<path d="
M 675.00 344.00 
C 675.57 338.08 675.64 331.00 675.00 325.00
C 675.01 331.33 675.00 337.67 675.00 344.00 Z"/>
</g>
<g fill="#31CAE5" fill-opacity="0.79" stroke="None">
<path d="
M 584.00 327.00 
C 583.90 327.20 582.08 326.81 582.00 327.00
C 583.24 334.51 579.46 345.91 584.00 351.00
C 582.84 343.76 581.84 334.24 584.00 327.00 Z"/>
</g>
<g fill="#21BCE1" fill-opacity="0.82" stroke="None">
<path d="
M 598.00 338.00 
C 593.29 340.70 587.65 345.45 585.00 350.00
C 589.00 347.49 592.24 343.99 596.00 341.00
C 598.31 346.73 593.91 353.56 597.00 359.00
C 597.17 351.94 598.62 345.25 598.00 338.00 Z"/>
</g>
<g fill="#D2D4D5" fill-opacity="0.79" stroke="None">
<path d="
M 132.00 356.00 
C 132.04 355.65 132.99 355.18 133.00 355.00
C 131.86 351.91 130.16 348.81 129.00 346.00
C 129.88 349.30 131.24 353.03 132.00 356.00 Z"/>
</g>
<g fill="#000000" fill-opacity="0.00" stroke="None">
<path d="
M 356.00 667.00 
C 356.04 667.00 356.00 668.00 356.00 668.00
L 685.00 668.00
L 685.00 346.00
C 685.00 346.00 684.00 345.96 684.00 346.00
C 684.00 429.33 641.46 511.06 582.75 569.75 C 524.04 628.45 439.06 667.00 356.00 667.00 Z"/>
</g>
<g fill="#BABBBD" fill-opacity="0.99" stroke="None">
<path d="
M 132.00 356.00 
C 136.20 376.37 146.55 395.78 161.00 411.00
C 158.43 415.42 161.72 421.71 166.00 424.00
C 174.46 428.72 180.83 440.47 189.75 448.25 C 198.67 456.03 206.21 464.40 216.30 470.70 C 226.40 476.99 236.55 483.36 247.78 488.22 C 259.00 493.09 271.93 498.18 284.00 501.00
C 259.14 474.35 240.68 443.14 241.00 407.00
C 239.43 395.20 240.23 380.14 244.00 370.00
C 241.05 372.50 233.39 374.08 230.00 375.00
C 226.69 375.90 221.59 377.08 218.00 375.00
C 220.93 392.33 210.38 410.54 217.00 428.00
C 205.81 429.08 195.82 423.43 187.00 418.00
C 164.36 403.84 142.21 379.95 133.00 355.00
C 132.99 355.18 132.04 355.65 132.00 356.00 Z"/>
</g>
<g fill="#000105" fill-opacity="0.99" stroke="None">
<path d="
M 298.00 413.00 
C 310.98 417.61 333.26 416.72 340.00 432.00
C 340.60 433.36 340.93 434.13 341.00 436.00
C 341.24 441.99 339.70 445.47 335.00 449.00
C 322.23 458.59 303.59 456.42 289.00 460.00
C 298.15 463.22 307.88 464.51 318.00 464.00
C 325.85 464.00 333.05 463.00 341.00 463.00
C 347.05 463.00 353.70 463.49 359.00 464.00
C 371.10 464.00 382.83 463.62 394.00 460.00
C 378.56 455.84 355.31 458.23 346.00 443.00
C 343.89 431.24 348.73 427.24 358.00 423.00
C 374.81 415.32 399.61 415.06 400.00 391.00
C 399.87 384.02 397.86 377.51 396.00 371.00
C 392.31 376.27 396.63 383.25 393.00 389.00
C 376.85 382.42 359.80 389.00 343.00 389.00
C 326.11 389.19 308.12 383.35 292.00 390.00
C 288.81 382.84 294.16 371.86 290.00 367.00
C 286.75 380.22 279.90 406.56 298.00 413.00 Z"/>
</g>
<g fill="#000209" fill-opacity="0.91" stroke="None">
<path d="
M 11.00 369.00 
C 0.59 364.78 2.59 382.98 5.22 388.78 C 7.85 394.57 7.78 406.05 10.22 412.78 C 12.67 419.50 14.63 427.95 17.07 434.93 C 19.52 441.90 22.70 449.86 25.23 456.77 C 27.76 463.68 31.71 469.74 34.68 476.32 C 37.65 482.91 41.08 489.08 44.70 495.30 C 48.31 501.53 52.35 507.80 56.25 513.75 C 60.15 519.71 64.28 524.96 68.25 530.75 C 72.22 536.54 77.57 540.79 81.25 546.75 C 84.93 552.71 91.98 556.24 95.75 562.25 C 99.51 568.26 106.85 570.21 110.23 576.77 C 113.61 583.33 127.48 585.35 124.92 577.08 C 122.37 568.80 114.14 569.34 110.25 562.75 C 106.35 556.16 98.83 554.12 95.30 547.70 C 91.77 541.27 85.93 538.02 81.92 532.08 C 77.90 526.15 73.55 521.34 69.75 515.25 C 65.96 509.16 60.96 503.71 57.77 497.23 C 54.58 490.75 50.30 485.36 47.31 478.70 C 44.31 472.03 41.08 465.78 37.92 459.08 C 34.77 452.38 32.09 444.79 28.93 438.07 C 25.77 431.36 25.21 422.54 21.93 416.07 C 18.64 409.61 19.32 398.79 15.93 393.07 C 12.54 387.36 17.51 371.64 11.00 369.00 Z"/>
</g>
<g fill="#02ACDC" fill-opacity="0.99" stroke="None">
<path d="
M 460.00 374.00 
C 458.42 374.34 455.88 375.39 454.00 376.00
C 464.52 390.51 464.71 410.71 461.00 428.00
C 461.84 427.99 464.88 429.91 467.00 430.00
C 480.19 428.35 488.07 422.36 498.00 416.00
C 499.06 409.71 493.13 394.38 489.25 389.75 C 485.38 385.11 482.66 369.71 476.00 369.00
C 470.99 371.88 465.80 373.69 460.00 374.00 Z"/>
</g>
<g fill="#007BA2" fill-opacity="0.99" stroke="None">
<path d="
M 443.00 410.00 
C 443.34 412.72 446.26 419.64 444.33 424.33 C 442.40 429.02 443.19 433.90 441.32 438.32 C 439.46 442.74 438.61 445.64 437.00 450.00
C 441.62 455.92 433.81 462.50 429.77 467.77 C 425.73 473.04 422.72 480.99 420.00 487.00
C 439.71 474.04 454.30 452.27 460.00 430.00
C 460.27 428.95 460.72 428.72 461.00 428.00
C 464.71 410.71 464.52 390.51 454.00 376.00
C 455.88 375.39 458.42 374.34 460.00 374.00
C 454.62 374.29 444.60 374.84 441.00 370.00
C 444.07 382.58 444.98 397.01 443.00 410.00 Z"/>
</g>
<g fill="#E1E1E1" fill-opacity="0.99" stroke="None">
<path d="
M 187.00 418.00 
C 195.82 423.43 205.81 429.08 217.00 428.00
C 210.38 410.54 220.93 392.33 218.00 375.00
C 221.59 377.08 226.69 375.90 230.00 375.00
C 224.20 375.61 217.97 373.51 213.00 371.00
C 207.81 371.31 203.30 379.65 200.75 383.75 C 198.21 387.86 193.03 394.03 191.98 398.98 C 190.92 403.92 185.15 412.93 187.00 418.00 Z"/>
</g>
<g fill="#055F80" fill-opacity="0.96" stroke="None">
<path d="
M 567.00 444.00 
C 573.04 425.40 570.82 402.79 569.00 384.00
C 569.30 406.66 565.57 428.33 562.00 450.00
C 564.86 449.30 565.67 445.74 567.00 444.00 Z"/>
</g>
<g fill="#04A2D2" fill-opacity="0.99" stroke="None">
<path d="
M 358.00 423.00 
C 355.99 424.57 353.48 428.24 350.00 429.00
C 354.60 432.53 349.73 440.21 346.00 443.00
C 355.31 458.23 378.56 455.84 394.00 460.00
C 382.83 463.62 371.10 464.00 359.00 464.00
C 358.00 464.00 357.00 464.00 356.00 464.00
C 359.38 464.33 364.80 465.84 368.00 467.00
C 361.59 475.00 348.00 470.78 344.00 481.00
C 342.33 480.76 343.83 478.15 342.00 478.00
C 343.49 481.58 342.00 489.06 342.00 493.00
C 347.20 489.10 356.60 492.62 362.02 489.02 C 367.45 485.43 374.21 484.89 379.69 481.69 C 385.18 478.50 390.43 476.01 396.00 473.00
C 417.26 461.53 436.19 440.46 442.00 417.00
C 440.47 416.82 441.01 414.18 439.00 415.00
C 435.04 427.43 420.62 433.71 408.00 432.00
C 420.43 417.64 404.31 403.43 400.00 391.00
C 399.61 415.06 374.81 415.32 358.00 423.00 Z"/>
</g>
<g fill="#D5D9DB" fill-opacity="0.99" stroke="None">
<path d="
M 272.00 459.00 
C 287.94 477.65 317.35 495.00 342.00 495.00
C 341.81 494.92 342.00 493.50 342.00 493.00
C 342.00 489.06 343.49 481.58 342.00 478.00
C 340.86 477.04 339.94 475.67 338.00 475.00
C 331.31 472.69 324.39 465.58 318.00 464.00
C 307.88 464.51 298.15 463.22 289.00 460.00
C 303.59 456.42 322.23 458.59 335.00 449.00
C 335.48 448.43 335.61 447.57 336.00 447.00
C 336.18 441.56 331.95 434.21 333.00 428.00
C 335.58 428.99 337.43 431.04 340.00 432.00
C 333.26 416.72 310.98 417.61 298.00 413.00
C 293.88 437.42 261.39 438.46 248.00 421.00
C 252.26 435.40 262.17 447.49 272.00 459.00 Z"/>
</g>
<g fill="#107AA8" fill-opacity="0.95" stroke="None">
<path d="
M 346.00 443.00 
C 349.73 440.21 354.60 432.53 350.00 429.00
C 353.48 428.24 355.99 424.57 358.00 423.00
C 348.73 427.24 343.89 431.24 346.00 443.00 Z"/>
</g>
<g fill="#AFB2B5" fill-opacity="0.96" stroke="None">
<path d="
M 336.00 447.00 
C 337.91 444.19 340.71 439.23 341.00 436.00
C 340.93 434.13 340.60 433.36 340.00 432.00
C 337.43 431.04 335.58 428.99 333.00 428.00
C 331.95 434.21 336.18 441.56 336.00 447.00 Z"/>
</g>
<g fill="#16B1D8" fill-opacity="0.83" stroke="None">
<path d="
M 460.00 430.00 
C 461.15 432.07 466.04 430.12 467.00 430.00
C 464.88 429.91 461.84 427.99 461.00 428.00
C 460.72 428.72 460.27 428.95 460.00 430.00 Z"/>
</g>
<g fill="#BFC2C4" fill-opacity="0.83" stroke="None">
<path d="
M 336.00 447.00 
C 335.61 447.57 335.48 448.43 335.00 449.00
C 339.70 445.47 341.24 441.99 341.00 436.00
C 340.71 439.23 337.91 444.19 336.00 447.00 Z"/>
</g>
<g fill="#0E618A" fill-opacity="0.98" stroke="None">
<path d="
M 318.00 464.00 
C 324.39 465.58 331.31 472.69 338.00 475.00
C 337.71 474.75 336.63 472.01 337.00 471.00
C 337.93 468.44 342.42 468.43 342.00 465.00
C 339.00 465.00 336.00 465.00 333.00 465.00
C 334.64 462.41 339.43 465.66 341.00 463.00
C 333.05 463.00 325.85 464.00 318.00 464.00 Z"/>
</g>
<g fill="#076185" fill-opacity="0.81" stroke="None">
<path d="
M 337.00 471.00 
C 338.06 469.03 345.62 467.89 342.00 464.00
C 346.67 464.00 351.33 464.00 356.00 464.00
C 357.00 464.00 358.00 464.00 359.00 464.00
C 353.70 463.49 347.05 463.00 341.00 463.00
C 339.43 465.66 334.64 462.41 333.00 465.00
C 336.00 465.00 339.00 465.00 342.00 465.00
C 342.42 468.43 337.93 468.44 337.00 471.00 Z"/>
</g>
<g fill="#0976A3" fill-opacity="0.97" stroke="None">
<path d="
M 337.00 471.00 
C 336.63 472.01 337.71 474.75 338.00 475.00
C 339.94 475.67 340.86 477.04 342.00 478.00
C 343.83 478.15 342.33 480.76 344.00 481.00
C 348.00 470.78 361.59 475.00 368.00 467.00
C 364.80 465.84 359.38 464.33 356.00 464.00
C 351.33 464.00 346.67 464.00 342.00 464.00
C 345.62 467.89 338.06 469.03 337.00 471.00 Z"/>
</g>
<g fill="#21BEDF" fill-opacity="0.96" stroke="None">
<path d="
M 342.00 493.00 
C 342.00 493.50 341.81 494.92 342.00 495.00
C 363.25 495.00 379.91 485.33 396.00 473.00
C 390.43 476.01 385.18 478.50 379.69 481.69 C 374.21 484.89 367.45 485.43 362.02 489.02 C 356.60 492.62 347.20 489.10 342.00 493.00 Z"/>
</g>
<g fill="#7B007C" fill-opacity="1.00" stroke="None">
<path d="
M 359.00 607.00 
C 352.33 607.00 345.67 607.00 339.00 607.00
C 345.23 607.60 352.71 607.61 359.00 607.00 Z"/>
</g>
<g fill="#000209" fill-opacity="0.38" stroke="None">
<path d="
M 347.00 668.00 
L 356.00 668.00
C 356.00 668.00 356.04 667.00 356.00 667.00
C 353.15 667.00 349.10 666.28 347.00 668.00 Z"/>
</g>
</svg>