<?xml version="1.0" encoding="UTF-8" standalone="no"?>
<svg
   viewBox="0 0 685.03485 668.82678"
   width="685.03485"
   height="668.82678"
   version="1.1"
   id="svg154"
   sodipodi:docname="xray_os-ai.svg"
   inkscape:version="1.4.2 (ebf0e940d0, 2025-05-08)"
   xmlns:inkscape="http://www.inkscape.org/namespaces/inkscape"
   xmlns:sodipodi="http://sodipodi.sourceforge.net/DTD/sodipodi-0.dtd"
   xmlns="http://www.w3.org/2000/svg"
   xmlns:svg="http://www.w3.org/2000/svg">
  <defs
     id="defs154" />
  <sodipodi:namedview
     id="namedview154"
     pagecolor="#ffffff"
     bordercolor="#000000"
     borderopacity="0.25"
     inkscape:showpageshadow="2"
     inkscape:pageopacity="0.0"
     inkscape:pagecheckerboard="0"
     inkscape:deskcolor="#d1d1d1"
     inkscape:zoom="0.70710678"
     inkscape:cx="154.14928"
     inkscape:cy="223.44574"
     inkscape:window-width="1920"
     inkscape:window-height="1012"
     inkscape:window-x="0"
     inkscape:window-y="0"
     inkscape:window-maximized="1"
     inkscape:current-layer="svg154" />
  <g
     fill="#cacacc"
     fill-opacity="1"
     stroke="None"
     id="g79"
     transform="translate(-169.96525,-193.92514)"
     style="display:inline">
    <path
       d="m 375,225 c 7.05,3.48 13.18,10.7 19,16 14.09,-3.99 25.33,-9.38 39.68,-13.32 14.34,-3.95 29,-7.9 44.39,-9.61 15.4,-1.7 35.38,-3 50.95,-1.09 15.58,1.9 32.49,1.2 46.99,6.01 14.49,4.81 27.17,5.72 40.67,13.33 13.5,7.61 22.1,-2.87 33.32,-11.32 -7.03,-0.3 -13.21,-9.14 -20.93,-10.07 -7.72,-0.94 -15.1,-6.17 -23.05,-7.95 -7.94,-1.79 -15.7,-3.86 -24,-6 -8.29,-2.14 -18.05,-2.75 -26.95,-4.05 -8.89,-1.31 -18.51,-3.43 -28.07,-2.93 -9.56,0.5 -20.07,-0.45 -29.33,0.67 -9.26,1.12 -19.84,0.52 -28.65,2.35 -8.8,1.84 -17.95,2.92 -26.34,4.66 -8.4,1.74 -15.73,4.44 -23.61,6.39 -7.87,1.96 -15.46,6.41 -22.99,8.01 -7.54,1.6 -13.71,8.92 -21.08,8.92 z"
       id="path79" />
  </g>
  <g
     fill="#0cf0fb"
     fill-opacity="1"
     stroke="None"
     id="g88"
     transform="translate(-169.96525,-193.92514)">
    <path
       d="m 307,231 c -10.6,3.63 -21.96,8.88 -30,17 -1.59,1.6 -2.75,4.16 -5,5 3.24,3.44 1.74,5.59 0,10 6.32,-4.11 12.59,-8.09 19,-12 23.1,-11.05 52.63,-5.29 72,10 5.34,4.21 10.67,9.15 14,14 0.34,-4.61 3.72,-10.86 -2,-13 6.44,0.01 6.14,-8.41 10,-13 -12.06,-12.91 -29.11,-22 -47,-22 -5.59,0 -11.43,-0.49 -17,0 -4.86,0.43 -9.45,2.45 -14,4 z"
       id="path88" />
  </g>
  <g
     fill="#03afd9"
     fill-opacity="1"
     stroke="None"
     id="g91"
     transform="translate(-169.96525,-193.92514)">
    <path
       d="m 291,251 c -0.53,0.7 -0.88,3.38 0,4 15.52,-5.59 35.38,-3.99 50,3 11.49,2.76 19.71,20.31 32,16 -2.04,-4.92 -6.94,-8.53 -10,-13 -19.37,-15.29 -48.9,-21.05 -72,-10 z"
       id="path91" />
  </g>
  <g
     fill="#009FBD"
     fill-opacity="1.00"
     stroke="None"
     id="g92"
     style="fill:#0bc4e6;fill-opacity:1"
     transform="translate(-169.96525,-193.92514)">
    <path
       id="path92"
       style="display:inline;fill:#0bc4e6;fill-opacity:1"
       d="m 727,248 c -4.47,-1.13 -8.2,-1.9 -13,-2 -2.52,0.47 -6.23,-1.03 -8,1 7.2,1.05 14.55,0.9 21,1 z m -79.19,42.25 c 5.08,-3.94 11.22,-8.35 16.44,-15 5.22,-6.65 11.22,-10.83 18.52,-15.48 7.3,-4.65 16.93,-7.35 26.23,-7.77 9.3,-0.42 20.82,1.15 28.93,5.07 8.1,3.93 13.52,7.37 19.82,14.18 6.31,6.81 8.66,13.36 12.32,21.68 3.66,8.31 3.77,19.32 4.93,28.07 4.43,-25.85 -5.48,-54.65 -25,-72 -2.7,0.35 -13.11,-3.77 -9,4 -4.82,-1.61 -9.03,-3.75 -14,-5 -6.45,-0.1 -13.8,0.05 -21,-1 1.77,-2.03 5.48,-0.53 8,-1 -10.96,-1.33 -26.08,-0.5 -35.77,5.23 -9.69,5.72 -16.1,10.24 -23.48,18.52 -7.38,8.29 -18.43,14.24 -6.75,21.25 z" />
  </g>
  <g
     fill="#0fcae9"
     fill-opacity="1"
     stroke="None"
     id="g93"
     transform="translate(-169.96525,-193.92514)">
    <path
       d="m 261,266 c -1.7,5.01 -1.79,14.95 -3,20 6.17,-13.98 18.83,-25.9 33,-31 -0.88,-0.62 -0.53,-3.3 0,-4 -6.41,3.91 -12.68,7.89 -19,12 1.74,-4.41 3.24,-6.56 0,-10 2.25,-0.84 3.41,-3.4 5,-5 -6.15,5.31 -11.64,11.25 -16,18 z"
       id="path93"
       style="display:inline" />
  </g>
  <g
     fill="#14d8f7"
     fill-opacity="1"
     stroke="None"
     id="g94"
     transform="translate(-169.96525,-193.92514)"
     style="display:inline">
    <path
       d="m 363,261 c 3.06,4.47 7.96,8.08 10,13 -12.29,4.31 -20.51,-13.24 -32,-16 7.26,3.47 14.17,11.18 19.25,16.75 5.07,5.58 12.64,15.5 19.75,15.25 6.49,-4.28 14.26,-9.33 21,-13 0.84,-2.62 -1.84,-9.69 -3,-12 -2.73,-5.47 -8.73,-11.42 -13,-16 -3.86,4.59 -3.56,13.01 -10,13 5.72,2.14 2.34,8.39 2,13 -3.33,-4.85 -8.66,-9.79 -14,-14 z"
       id="path94" />
  </g>
  <g
     fill="#c1cad1"
     fill-opacity="1"
     stroke="None"
     id="g95"
     transform="translate(-169.96525,-193.92514)"
     style="display:inline">
    <path
       d="m 398,265 c 1.16,2.31 3.84,9.38 3,12 5.12,-1.26 9.36,-4.58 14,-7 -4.51,0.05 -10,-7.09 -14,-7 -0.94,0.49 -2.6,1.01 -3,2 z"
       id="path95" />
  </g>
  <g
     fill="#09aad4"
     fill-opacity="1"
     stroke="None"
     id="g96"
     style="display:inline"
     transform="translate(-169.96525,-193.92514)">
    <path
       d="m 248.80676,304.88303 c -0.11875,1.3275 -2.30421,9.9853 2.16952,16.28905 2.86565,-2.25375 1.8252,-16.32381 2.1784,-18.12789 C 254.20468,297.20419 255.6,291.43 258,286 c 1.21,-5.05 1.3,-14.99 3,-20 -6.76625,9.45375 -11.451,27.30581 -12.19324,38.88303 z"
       id="path96"
       sodipodi:nodetypes="cccccc"
       style="display:inline" />
  </g>
  <g
     fill="#496c74"
     fill-opacity="1"
     stroke="None"
     id="g99"
     transform="translate(-169.96525,-193.92514)">
    <path
       d="m 790,323 c 0.45,-4.65 0.46,-10.28 0,-15 0,5 0,10 0,15 z"
       id="path99" />
  </g>
  <g
     fill="#06E3FE"
     fill-opacity="1.00"
     stroke="None"
     id="g102"
     style="display:inline;fill:#14eefc;fill-opacity:1"
     transform="translate(-169.96525,-193.92514)">
    <path
       id="path102"
       style="display:inline;fill:#14eefc;fill-opacity:1"
       d="m 531,424 c -1.83,2.84 -4.1,5.46 -6,8 -5.5,7.33 -11.98,16.64 -16.75,24.25 -4.78,7.61 -15.28,14.06 -17.25,22.75 1.2,4.81 18.15,1.29 24,2 5.85,0.71 19.45,0 26,0 2.46,0 5.6,-0.53 8,0 -1.25,-1.37 -2.33,-3.03 -2,-5 7.86,-2.7 0.33,-9.25 -1,-14 19.44,-2.31 14.78,-27.73 30.7,-37.3 15.91,-9.57 40.91,-6.63 38.3,15.3 6.43,4.78 11.45,11.94 16,18 4.88,3.45 16.68,-4.24 23.08,-6.92 6.39,-2.69 13.75,-8.96 19.17,-14.83 5.41,-5.88 9.84,-12.34 14.06,-19.94 4.21,-7.61 7.73,-13.97 10.67,-23.33 2.93,-9.37 11.47,4.79 15.02,10.02 -4.99,-7.57 -8.94,-15.7 -12,-24 -6.27,0.46 -8.7,-7.85 -13.75,-12.25 -5.06,-4.39 -8.26,-9.82 -14.02,-13.98 -5.76,-4.16 -10.95,-8.4 -16.48,-11.52 -5.54,-3.11 -9.84,-9.35 -16.67,-11.33 -6.83,-1.98 -11.36,-9.03 -19.08,-8.92 -2.9,5.54 -3.43,14.12 -4,20 -0.57,5.88 -2.89,12.27 -6.75,15.24 -3.86,2.97 -8.76,7.65 -13.25,4.76 0.96,2.94 -5.05,4.43 -5.08,9.92 -0.04,5.48 -8.7,6.26 -9.92,2.08 -2.95,12.96 -24.5,2.45 -29,11 -5.82,-0.73 -11.4,-0.09 -13,6 -4.87,-2.15 -3.84,-0.47 -4,3 -8.36,-2.02 -10.28,6.27 -13,11 6.81,0.1 6.99,1.9 15,0 -4.4,3.37 4.3,4.91 8,4 1.23,4.7 -4.9,4.96 -6,3 0.02,5.79 -5.95,9.7 -9,13 z M 513,237 v 19 c 11.17,-0.21 20.91,2.9 32.07,2.93 11.17,0.03 22.23,3.28 15.01,13.15 -7.23,9.87 -7.75,13.99 -13.38,22.62 -5.64,8.62 -8.35,13.82 -12.95,22.05 -4.61,8.22 -8.33,15.15 -13.05,22.95 -4.73,7.8 -8.17,15.59 -12.62,23.38 -4.46,7.78 -8.96,14.99 -13.08,22.92 -4.77,8.3 -10.02,16.44 -14,25 h 58 c -1.236,2.22742 -2.28032,4.06495 -3.46186,6.05201 C 535.35471,417.46076 535,418 535,418 c -1.29,2.08 -2.69,3.97 -4,6 3.05,-3.3 9.02,-7.21 9,-13 1.1,1.96 7.23,1.7 6,-3 -3.7,0.91 -12.4,-0.63 -8,-4 -8.01,1.9 -8.19,0.1 -15,0 2.72,-4.73 4.64,-13.02 13,-11 0.16,-3.47 -0.87,-5.15 4,-3 1.6,-6.09 7.18,-6.73 13,-6 4.5,-8.55 26.05,1.96 29,-11 1.22,4.18 9.88,3.4 9.92,-2.08 0.03,-5.49 6.04,-6.98 5.08,-9.92 4.49,2.89 9.39,-1.79 13.25,-4.76 3.86,-2.97 6.18,-9.36 6.75,-15.24 0.57,-5.88 1.1,-14.46 4,-20 7.72,-0.11 12.25,6.94 19.08,8.92 6.83,1.98 11.13,8.22 16.67,11.33 5.53,3.12 10.72,7.36 16.48,11.52 5.76,4.16 8.96,9.59 14.02,13.98 5.05,4.4 7.48,12.71 13.75,12.25 3.06,8.3 7.01,16.43 12,24 11.84,22.18 20.59,43.91 28,68 6.02,19.57 11.19,37.85 12,59 0.3,-3.05 1.46,-7.57 2,-11 5.82,2.84 6.37,-1.19 9,-4 5.09,5.56 4.64,12.4 6,20 4.43,-51.92 -8.76,-102.98 -33,-147 1.06,7.53 4.77,19.29 0,25 -16.78,-46.21 -44.37,-95.22 -89,-122 -11.68,-7.01 -0.63,-12.96 6.75,-21.25 7.38,-8.28 13.79,-12.8 23.48,-18.52 9.69,-5.73 24.81,-6.56 35.77,-5.23 4.8,0.1 8.53,0.87 13,2 4.97,1.25 9.18,3.39 14,5 -4.11,-7.77 6.3,-3.65 9,-4 -32.34,-34.72 -100.51,-30.21 -121,15 -36.28,-17.14 -74.68,-27 -116,-27 z"
       sodipodi:nodetypes="ccccsscccccccccccccscscsscccccccccccccscccccccccccccccccccccsscscsccccccccccccccccccc" />
  </g>
  <g
     fill="#07c5f3"
     fill-opacity="1"
     stroke="None"
     id="g106"
     transform="translate(-169.96525,-193.92514)"
     style="display:inline">
    <path
       d="m 631,458 c 12.83,17.08 29.1,27.91 38.31,47.7 9.2,19.78 -6.59,48.42 -24.31,58.3 7.58,0.75 9.84,15.63 14.92,21.08 5.08,5.46 5.95,20.49 9.08,26.92 4.35,-2.72 8.54,-6.9 13,-9 0.26,-0.12 0.68,-0.8 1,-1 4.91,-6.3 11.87,-11.11 17,-17 16.57,-22.29 30.63,-45.67 36,-73 0.86,-4.38 1.78,-9.52 2,-14 0.22,-4.48 2.52,-10.48 1,-15 -1.52,-4.52 1.99,-11.87 2,-12 -7.41,-24.09 -16.16,-45.82 -28,-68 -3.55,-5.23 -12.09,-19.39 -15.02,-10.02 -2.94,9.36 -6.46,15.72 -10.67,23.33 -4.22,7.6 -8.65,14.06 -14.06,19.94 -5.42,5.87 -12.78,12.14 -19.17,14.83 -6.4,2.68 -18.2,10.37 -23.08,6.92 z"
       id="path106" />
  </g>
  <g
     fill="#d6d6d7"
     fill-opacity="1"
     stroke="None"
     id="g107"
     transform="translate(-169.96525,-193.92514)"
     style="display:inline">
    <path
       d="m 770,392 c 15.4,34.87 24.77,71.33 27,110 2.23,38.67 -5.62,83.34 -19.07,116.93 -13.45,33.58 -27.55,58.09 -51.16,84.84 -23.61,26.75 -44.8,44.08 -75.69,61.31 C 620.19,782.32 586.47,794.33 550,800 513.53,805.67 463.07,800.33 429.01,788.99 394.95,777.66 367.74,764.37 339,743 c 10.54,15.49 26.48,29.54 41.75,43.25 15.28,13.71 31.74,27.03 49.5,37.5 17.77,10.46 37.11,26.43 58.75,27.25 -0.11,0.54 -1.69,1.94 -2,2 185.88,16.34 359,-140.9 359,-327 -16.22,-48.67 -42.85,-94.66 -74,-136 -0.52,0.08 -1.96,1.73 -2,2 z"
       id="path107" />
  </g>
  <g
     fill="#d4d7d9"
     fill-opacity="1"
     stroke="None"
     id="g110"
     transform="translate(-169.96525,-193.92514)"
     style="display:inline">
    <path
       d="m 427,434 c 9.24,0.77 7.9,-0.4 17.22,3.78 9.32,4.17 16.23,16.93 14.78,27.22 -1.45,10.29 8.34,5.42 9,12 -5.55,6.83 -12.14,11.77 -15,20 3.94,-1.67 2.68,0.13 5,2 4.81,-8 11.83,-15.52 19,-22 -5.08,-4.57 1.34,-9.31 4,-15 -23.07,8.27 -15.43,-24.41 -28.92,-35.08 C 438.59,416.24 411.09,414.94 411,438 c 5.05,-3.32 10.71,-4.44 16,-4 z"
       id="path110" />
  </g>
  <g
     fill="#0abfed"
     fill-opacity="1"
     stroke="None"
     id="g111"
     transform="translate(-169.96525,-193.92514)"
     style="display:inline">
    <path
       d="m 549,481 c 6.23,1.38 12.32,11.33 16,16 1.08,0.54 3.03,-0.2 4,1 2.97,-4.38 0.08,-9.22 -1,-12 -2.56,-2.88 -5.18,-7.08 -9,-8 14.48,-6.2 4.16,-28.08 16.75,-36.25 12.59,-8.17 26.87,-11.33 39.25,-1.75 2.61,-21.93 -22.39,-24.87 -38.3,-15.3 -15.92,9.57 -11.26,34.99 -30.7,37.3 1.33,4.75 8.86,11.3 1,14 -0.33,1.97 0.75,3.63 2,5 z"
       id="path111" />
  </g>
  <g
     fill="#35eaf1"
     fill-opacity="1"
     stroke="None"
     id="g114"
     transform="translate(-169.96525,-193.92514)"
     style="display:inline">
    <path
       d="m 446,484 c -3.3,9.6 -13.67,14.24 -22.92,8.92 -9.25,-5.32 -9.74,-16.28 -9.08,-24.92 -8.15,9.62 -8.4,25.79 3.92,32.08 12.33,6.28 26.55,-3 28.08,-16.08 z"
       id="path114" />
  </g>
  <g
     fill="#2dedf4"
     fill-opacity="1"
     stroke="None"
     id="g115"
     transform="translate(-169.96525,-193.92514)"
     style="display:inline">
    <path
       d="m 613,470 c 0.72,7.88 -1.24,18.75 -9.77,23.23 -8.53,4.48 -19.63,0.95 -21.23,-9.23 -1.92,11.66 14.28,22.25 25.77,16.77 11.49,-5.48 13.6,-21.64 5.23,-30.77 z"
       id="path115" />
  </g>
  <g
     fill="#eaecef"
     fill-opacity="1"
     stroke="None"
     id="g117"
     transform="translate(-169.96525,-193.92514)"
     style="display:inline">
    <path
       d="m 436,473 c -5.63,-1.74 -8.74,6.78 -3,9 5.73,2.21 8.21,-7.39 3,-9 z"
       id="path117" />
  </g>
  <g
     fill="#eef2f3"
     fill-opacity="1"
     stroke="None"
     id="g118"
     transform="translate(-169.96525,-193.92514)"
     style="display:inline">
    <path
       d="m 594,473 c -6.64,-2.47 -9.99,7.56 -4,10 5.98,2.44 9.42,-7.98 4,-10 z"
       id="path118" />
  </g>
  <g
     fill="#d7d9da"
     fill-opacity="1"
     stroke="None"
     id="g119"
     transform="translate(-169.96525,-193.92514)"
     style="display:inline">
    <path
       d="m 293,639 c -6.53,-31.11 -9.04,-67.2 -2,-98 5.55,34.59 18.44,71.92 49,93 -2.48,-4.22 -2.24,-9.63 -4,-14 -0.68,-1.69 -2.92,-4.27 -4,-6 -1.91,-3.05 -3.84,-5.01 -1,-8 -15.54,-17.48 -27.4,-41.34 -31,-63 -9.02,-21.17 -13.47,-44.31 -16,-67 -7.24,21.72 -11.84,44.17 -11,68 -7.22,-0.53 -12.24,-7.4 -16,-13 -0.52,5.01 -0.09,13.2 1.01,18.99 1.1,5.79 1.87,12.35 3.01,17.99 1.15,5.63 2.47,11.71 4.05,16.95 1.59,5.24 3.1,11.15 5.16,15.84 2.06,4.69 4.56,10.43 6.47,14.54 1.9,4.1 5.64,10.87 7.05,13.94 1.41,3.08 8.1,11.92 9.25,9.75 z"
       id="path119" />
  </g>
  <g
     fill="#e7fefd"
     fill-opacity="1"
     stroke="None"
     id="g120"
     transform="translate(-169.96525,-193.92514)"
     style="display:inline;fill:#fcfdfd;fill-opacity:1">
    <path
       id="path120"
       style="display:inline;fill:#fcfdfd;fill-opacity:1"
       d="m 538,486 c 1.44,-1.42 3.9,-2.3 3,-5 -6.55,0 -20.15,0.71 -26,0 -5.85,-0.71 -22.8,2.81 -24,-2 1.66,5.75 14.34,2.26 22,3 7.66,0.74 19,-0.55 27,0 0.14,1.63 -1.12,2.78 -2,4 z M 401,263 c 4,-0.09 9.49,7.05 14,7 -4.64,2.42 -8.88,5.74 -14,7 -6.74,3.67 -14.51,8.72 -21,13 -10.46,6.89 -20.18,15.61 -30,24 l -11,11 c -23.59,24.79 -37.14,55.68 -51,86 -3.44,-7.15 2.28,-17.09 0,-24 -42.38,77.52 -49.56,184.13 5,258 1.75,-1.21 0.29,-4.13 0,-6 -1.15,2.17 -7.84,-6.67 -9.25,-9.75 -1.41,-3.07 -5.15,-9.84 -7.05,-13.94 -1.91,-4.11 -4.41,-9.85 -6.47,-14.54 -2.06,-4.69 -3.57,-10.6 -5.16,-15.84 -1.58,-5.24 -2.9,-11.32 -4.05,-16.95 -1.14,-5.64 -1.91,-12.2 -3.01,-17.99 -1.1,-5.79 -1.53,-13.98 -1.01,-18.99 3.76,5.6 8.78,12.47 16,13 -0.84,-23.83 3.76,-46.28 11,-68 2.53,22.69 6.98,45.83 16,67 9.85,27.37 31.99,54.36 57,70 1.97,-17.41 11.38,-33.48 23,-47 2.36,0.66 5.22,1.58 7,3 8.29,3.1 13.75,1.67 20,-2 -22.82,8.96 -41.33,-13.03 -49.92,-33.08 -8.6,-20.04 8.27,-45.52 24.69,-58.15 16.42,-12.63 21.88,-40.38 45.23,-41.77 -5.29,-0.44 -10.95,0.68 -16,4 0.09,-23.06 27.59,-21.76 41.08,-11.08 13.49,10.67 5.85,43.35 28.92,35.08 -2.66,5.69 -9.08,10.43 -4,15 -7.17,6.48 -14.19,14 -19,22 -2.32,-1.87 -1.06,-3.67 -5,-2 2.86,-8.23 9.45,-13.17 15,-20 -27.2,21.66 -41.98,54.6 -53,86 -4.07,11.61 -6.17,22.71 -5,36 2.12,24.14 18.44,44.72 37.25,59.75 18.81,15.03 39.82,30.8 64.75,31.25 -0.2,-0.1 0,-1.5 0,-2 v -16 -1 c -2.54,-0.73 -5.52,-1.11 -8,-2 2.09,0.86 4.25,3.17 7,3 v 16 c -40.18,-5.6 -79.69,-35.85 -94,-74 6.94,9.43 17.13,14.36 29,14 11.87,-0.36 19.91,-10.22 22,-21 -18.11,-6.69 -11.47,-34.17 -7,-47 1.24,5.56 -0.82,13.38 0,20 0.58,1.34 1.57,3.05 1,5 15.84,-8.23 34.03,-1.26 51,-1 -2.1,-19.88 2.8,-41.27 0,-61 -2.8,-19.73 13.13,-25.24 25,-37 0.88,-1.22 2.14,-2.37 2,-4 -8,-0.55 -19.34,0.74 -27,0 -7.66,-0.74 -20.34,2.75 -22,-3 1.97,-8.69 12.47,-15.14 17.25,-22.75 4.77,-7.61 11.25,-16.92 16.75,-24.25 3.34711,-3.85177 7.31406,-8.99287 10,-14 0,0 0.42557,-0.52685 0.58557,-0.96685 0.95622,-1.79162 2.89284,-4.41381 3.87284,-6.09381 -9.14,-0.02 -25.1818,0.34743 -33.61872,-0.83969 -7.68031,-1.08066 -26.12998,4.63713 -21.70998,-4.00287 4.42,-8.64 6.18481,-12.56161 11.44481,-19.83161 4.12,-7.93 8.04548,-15.40517 12.50548,-23.18517 4.45,-7.79 7.89,-15.58 12.62,-23.38 4.72,-7.8 8.44,-14.73 13.05,-22.95 4.6,-8.23 7.31,-13.43 12.95,-22.05 5.63,-8.63 6.15,-12.75 13.38,-22.62 7.22,-9.87 -3.84,-13.12 -15.01,-13.15 C 533.91,258.9 524.17,255.79 513,256 v -19 c -39.15,0 -77.95,8.37 -112,26 z" />
  </g>
  <g
     fill="#4af5fd"
     fill-opacity="1"
     stroke="None"
     id="g121"
     transform="translate(-169.96525,-193.92514)"
     style="display:inline">
    <path
       d="m 538,486 c -11.87,11.76 -27.8,17.27 -25,37 2.8,19.73 -2.1,41.12 0,61 8.29,0 18.32,-2.31 26,-3 7.68,-0.68 19.26,-0.34 24,3 -0.18,-2.56 3,-5.69 2,-9 -1,-3.31 -0.07,-8.46 1,-11 0.95,6.42 3.28,12.49 4,19 4.86,13.67 20.52,28.75 7,44 3.33,0 6.67,0 10,0 8.83,-1.96 15.94,-6.34 21,-14 0.84,-1.27 1.26,-2.69 2,-4 1.67,0.24 0.17,2.85 2,3 0.7,-3.31 1.77,-6.65 2,-10 0.11,-1.65 0,-3.35 0,-5 0,-4.67 0,-9.33 0,-14 0,-7.18 -1.49,-12.39 -3,-19 -4.49,-19.62 -14.03,-38 -25,-55 -3.24,-1.38 -1.14,2.04 -3,4 -8.96,0.53 -11.52,-10.88 -18,-16 -3.68,-4.67 -9.77,-14.62 -16,-16 -2.4,-0.53 -5.54,0 -8,0 0.9,2.7 -1.56,3.58 -3,5 z"
       id="path121" />
  </g>
  <g
     fill="#38dcf5"
     fill-opacity="1"
     stroke="None"
     id="g122"
     transform="translate(-169.96525,-193.92514)"
     style="display:inline">
    <path
       d="m 565,497 c 6.48,5.12 9.04,16.53 18,16 1.86,-1.96 -0.24,-5.38 3,-4 -5.29,-8.2 -11.54,-15.73 -18,-23 1.08,2.78 3.97,7.62 1,12 -0.97,-1.2 -2.92,-0.46 -4,-1 z"
       id="path122" />
  </g>
  <g
     fill="#000717"
     fill-opacity="1.00"
     stroke="None"
     id="g123"
     style="fill:#000002;fill-opacity:1"
     transform="translate(-169.96525,-193.92514)">
    <path
       id="path123"
       style="display:inline;fill:#000002;fill-opacity:1"
       d="m 397,502 c -10.1,7.55 -18.61,11.96 -23.8,26.75 -5.19,14.8 15.74,24.93 29.1,17.55 13.37,-7.38 15.53,-20.06 18.7,-33.3 -9.08,2.68 -23.53,-1.13 -24,-11 z m 10,65 c 2.11,-0.83 6.71,-1.77 8,-4 11.02,-31.4 25.8,-64.34 53,-86 -0.66,-6.58 -10.45,-1.71 -9,-12 1.45,-10.29 -5.46,-23.05 -14.78,-27.22 -9.32,-4.18 -7.98,-3.01 -17.22,-3.78 -23.35,1.39 -28.81,29.14 -45.23,41.77 -16.42,12.63 -33.29,38.11 -24.69,58.15 8.59,20.05 27.1,42.04 49.92,33.08 m 39,-83 c -1.53,13.08 -15.75,22.36 -28.08,16.08 C 405.6,493.79 405.85,477.62 414,468 c -0.66,8.64 -0.17,19.6 9.08,24.92 9.25,5.32 19.62,0.68 22.92,-8.92 m -10,-11 c 5.21,1.61 2.73,11.21 -3,9 -5.74,-2.22 -2.63,-10.74 3,-9 m -39,29 c 0.47,9.87 14.92,13.68 24,11 -3.17,13.24 -5.33,25.92 -18.7,33.3 -13.36,7.38 -34.29,-2.75 -29.1,-17.55 5.19,-14.79 13.7,-19.2 23.8,-26.75 z" />
  </g>
  <g
     fill="#000616"
     fill-opacity="1.00"
     stroke="None"
     id="g125"
     style="fill:#000002;fill-opacity:1"
     transform="translate(-169.96525,-193.92514)">
    <path
       id="path125"
       style="display:inline;fill:#000002;fill-opacity:1"
       d="m 610,528 c 2.87,14.35 20.88,25.75 35.77,20.77 14.89,-4.98 8.19,-33.25 -2.77,-37.77 6.92,5.8 -10.48,4.35 -8,11 -9.62,0.53 -14.87,10.39 -25,6 z m -42,-42 c 6.46,7.27 12.71,14.8 18,23 10.97,17 20.51,35.38 25,55 2.78,4.26 14.48,5.31 19,5 5.15,-0.35 10.62,-2.56 15,-5 17.72,-9.88 33.51,-38.52 24.31,-58.3 C 660.1,485.91 643.83,475.08 631,458 c -4.55,-6.06 -9.57,-13.22 -16,-18 -12.38,-9.58 -26.66,-6.42 -39.25,1.75 -12.59,8.17 -2.27,30.05 -16.75,36.25 3.82,0.92 6.44,5.12 9,8 m 45,-16 c 8.37,9.13 6.26,25.29 -5.23,30.77 -11.49,5.48 -27.69,-5.11 -25.77,-16.77 1.6,10.18 12.7,13.71 21.23,9.23 8.53,-4.48 10.49,-15.35 9.77,-23.23 m -19,3 c 5.42,2.02 1.98,12.44 -4,10 -5.99,-2.44 -2.64,-12.47 4,-10 m 16,55 c 10.13,4.39 15.38,-5.47 25,-6 -2.48,-6.65 14.92,-5.2 8,-11 10.96,4.52 17.66,32.79 2.77,37.77 -14.89,4.98 -32.9,-6.42 -35.77,-20.77 z" />
  </g>
  <g
     fill="#3cd0ef"
     fill-opacity="1"
     stroke="None"
     id="g127"
     transform="translate(-169.96525,-193.92514)"
     style="display:inline">
    <path
       d="m 753,530 c 0,5 0,10 0,15 2.33,-0.27 4.22,-2.48 6,-4 2.92,-2.92 5.4,-6.85 9,-9 0.65,5.5 -1.32,12.33 1,17 0.62,-4.76 0.81,-9.09 1,-14 -1.36,-7.6 -0.91,-14.44 -6,-20 -2.63,2.81 -3.18,6.84 -9,4 -0.54,3.43 -1.7,7.95 -2,11 z"
       id="path127" />
  </g>
  <g
     fill="#0eb3e0"
     fill-opacity="1"
     stroke="None"
     id="g128"
     transform="translate(-169.96525,-193.92514)"
     style="display:inline">
    <path
       d="m 759,541 c 3.08,-1.67 4.89,-5.27 8,-7 1.65,16.96 -3.48,34.89 -6.68,50.32 -3.19,15.43 -13.22,22.94 -20.32,35.68 -0.95,6 -2.26,16.3 -4,21 21.59,-25.27 28.83,-60.01 33,-92 -2.32,-4.67 -0.35,-11.5 -1,-17 -3.6,2.15 -6.08,6.08 -9,9 z"
       id="path128" />
  </g>
  <g
     fill="#bbbcbe"
     fill-opacity="1"
     stroke="None"
     id="g129"
     transform="translate(-169.96525,-193.92514)"
     style="display:inline">
    <path
       d="m 332,614 c 0.93,0.74 4.18,1.56 6,4 28.06,39.91 71.37,66.69 117,78 -24.19,-26.21 -47.78,-60.84 -45,-97 -1.17,-13.29 0.93,-24.39 5,-36 -1.29,2.23 -5.89,3.17 -8,4 -6.25,3.67 -11.71,5.1 -20,2 4.77,7.09 -0.56,19.13 -1,27 -0.43,7.87 -1.83,19 1,27 -11.01,0.55 -21.24,-4.45 -30,-10 -25.01,-15.64 -47.15,-42.63 -57,-70 3.6,21.66 15.46,45.52 31,63 -2.84,2.99 -0.91,4.95 1,8 z"
       id="path129" />
  </g>
  <g
     fill="#056081"
     fill-opacity="1"
     stroke="None"
     id="g131"
     transform="translate(-169.96525,-193.92514)"
     style="display:inline">
    <path
       d="m 736,641 c 1.74,-4.7 3.05,-15 4,-21 2.99,-18.77 0.64,-40.91 -2,-59 3.1,28.37 -1.2,56.83 -6,84 1.85,-0.61 2.82,-2.62 4,-4 z"
       id="path131" />
  </g>
  <g
     fill="#01030a"
     fill-opacity="1"
     stroke="None"
     id="g132"
     transform="translate(-169.96525,-193.92514)">
    <path
       id="path132"
       d="m 180,564 c -9.44,-4.33 -6.75,12.78 -4.98,17.98 1.78,5.19 2.81,16.15 4.65,22.35 1.84,6.19 4.11,14.51 6.01,20.99 1.89,6.48 4.99,13.27 7.39,19.61 2.41,6.33 5.04,12.92 8.01,18.99 2.96,6.07 5.87,12.07 9.15,17.85 3.28,5.78 6.29,11.6 10,17 3.71,5.4 6.95,10.93 10.85,16.15 3.9,5.21 7.43,10.37 11.62,15.38 4.18,5.02 7.26,10.31 12.05,14.95 4.8,4.63 8.62,8.99 13,14 4.39,5 9.81,7.67 13.5,13.5 3.7,5.82 16.35,7.27 13.5,-0.5 -2.85,-7.77 -10.52,-6.71 -14,-13 -3.48,-6.29 -9.85,-7.9 -13.45,-13.55 -3.6,-5.66 -8.75,-9.12 -12.53,-14.47 -3.78,-5.35 -8.33,-9.65 -11.85,-15.15 -3.52,-5.5 -7.12,-10.61 -11,-16 -3.88,-5.39 -6.37,-11.29 -10.15,-16.85 -3.78,-5.56 -5.81,-12.09 -9,-18 -3.19,-5.91 -6.16,-11.9 -8.85,-18.15 -2.68,-6.26 -5.15,-13.07 -7.61,-19.39 -2.47,-6.31 -4.12,-14.29 -6.53,-20.47 -2.41,-6.18 -2.94,-16.08 -5.45,-21.55 -2.51,-5.47 1.26,-19.11 -4.33,-21.67 z m 666,-38 c 0,186.1 -173.12,343.34 -359,327 -11.27,-1.62 -23.97,-2.95 -34.98,-5.02 -11,-2.08 -21.29,-4.05 -31.8,-7.2 -10.5,-3.16 -19.35,-6.31 -29.53,-10.47 -10.17,-4.17 -16.79,-6.34 -26.99,-12 -10.21,-5.67 -14.06,-7.37 -25.47,-14.54 -11.41,-7.17 -12.56,5.36 -0.93,9.93 11.63,4.56 14.17,10.28 24.62,14.38 10.46,4.09 17.77,8.31 28.06,11.94 10.28,3.64 18.72,6.72 29.35,9.65 10.63,2.93 21.44,5.42 32.65,7.35 11.2,1.94 22.24,3.81 34.02,4.98 11.78,1.17 26.25,0.82 38,0 11.75,-0.82 24.87,-0.94 36,-3 11.13,-2.06 22.54,-2.9 32.93,-6.07 10.39,-3.17 20.94,-5.79 30.85,-9.15 9.9,-3.37 18.73,-6.93 27.99,-11.01 9.26,-4.07 17.88,-8.86 26.53,-13.47 8.66,-4.61 15.94,-9.79 24,-15 8.07,-5.2 16.13,-10.38 23.45,-16.55 7.33,-6.17 13.57,-12.08 21,-18 7.43,-5.91 12.18,-13.43 19,-20 6.83,-6.57 12.07,-14.66 18,-22 5.94,-7.34 11.6,-14.27 16.48,-22.52 4.88,-8.25 10.54,-16.23 15,-25 4.46,-8.77 8.77,-16.82 12.84,-26.16 4.07,-9.33 7.44,-19.35 10.61,-29.39 3.16,-10.05 6.17,-19.82 8.39,-30.61 2.23,-10.78 4.65,-21.48 5.93,-33.07 1.28,-11.59 1.99,-25.8 2,-38 0.01,-12.2 -0.56,-25.41 -2,-37 -1.44,-11.59 -2.49,-24.11 -5.02,-34.98 -2.54,-10.86 -4.95,-20.77 -8.05,-30.95 -3.11,-10.17 -6.87,-19.88 -10.62,-29.38 -3.76,-9.49 -8.32,-17.47 -12.54,-26.46 -4.22,-8.99 -8.63,-16.46 -14.77,-24.23 -10.65,7.98 2.85,20.09 7.23,30.77 4.38,10.68 11.19,21.22 14.99,33.01 3.8,11.79 8.57,23.4 11.79,36.21 3.22,12.82 4.98,27.11 7.06,40.94 2.09,13.82 2.93,30.29 2.93,45.07 z M 223,340 c -5.27,6.03 -9.16,12.18 -12.69,19.31 -3.54,7.12 -7.45,14.02 -10.53,21.47 -3.09,7.45 -6.7,14.87 -9.46,22.54 -2.76,7.67 -5.25,16.68 -7.54,24.46 -2.29,7.77 -5.18,17.91 -6.45,25.55 -1.28,7.64 -3.94,21.17 -4.34,27.66 -0.4,6.49 -5.82,24.25 2.93,23.93 8.76,-0.31 4.41,-19.18 6.1,-25.9 1.7,-6.72 3.06,-19.36 4.99,-27.01 1.92,-7.65 3.64,-18.07 6.21,-25.79 2.58,-7.71 5.75,-15.98 8.46,-23.54 2.71,-7.56 6.12,-15.41 9.55,-22.45 3.43,-7.04 7.28,-14.63 10.85,-21.15 3.56,-6.53 11.67,-14.93 1.92,-19.08 z"
       style="display:inline" />
  </g>
  <g
     fill="#03addd"
     fill-opacity="1"
     stroke="None"
     id="g134"
     transform="translate(-169.96525,-193.92514)"
     style="display:inline">
    <path
       d="m 630,569 c -0.96,2.46 -4.97,-0.37 -6,2 10.57,13.15 11.24,34.64 7,51 1.01,6.95 13.27,1.24 18.99,-0.01 5.72,-1.25 13.89,-6.79 19.01,-9.99 -3.13,-6.43 -4,-21.46 -9.08,-26.92 -5.08,-5.45 -7.34,-20.33 -14.92,-21.08 -4.38,2.44 -9.85,4.65 -15,5 z"
       id="path134" />
  </g>
  <g
     fill="#e1e1e1"
     fill-opacity="1"
     stroke="None"
     id="g135"
     transform="translate(-169.96525,-193.92514)"
     style="display:inline">
    <path
       d="m 357,613 c 8.76,5.55 18.99,10.55 30,10 -2.83,-8 -1.43,-19.13 -1,-27 0.44,-7.87 5.77,-19.91 1,-27 -1.78,-1.42 -4.64,-2.34 -7,-3 -11.62,13.52 -21.03,29.59 -23,47 z"
       id="path135" />
  </g>
  <g
     fill="#010a1a"
     fill-opacity="1"
     stroke="None"
     id="g136"
     transform="translate(-169.96525,-193.92514)"
     style="fill:#000104;fill-opacity:1">
    <path
       id="path136"
       style="display:inline;fill:#000104;fill-opacity:1"
       d="m 563,584 c -4.74,-3.34 -16.32,-3.68 -24,-3 -7.68,0.69 -17.71,3 -26,3 -16.97,-0.26 -35.16,-7.23 -51,1 0.57,-1.95 -0.42,-3.66 -1,-5 -1.94,2.09 -0.02,-3.86 -2,-4 2.35,5.05 -9.73,19.34 5,17 14.73,-2.34 28.22,6.37 42,8 0.63,-3.11 -4.62,-1.97 -4,-5 6.75,-1.93 13.9,-2.46 21,-3 1.29,-5.46 16.48,-8.27 19.21,-3.23 2.73,5.03 -16,5.17 -15.21,10.23 6.47,-2.66 13.36,-3.82 19.93,-6.07 6.57,-2.26 18.68,2.52 21.07,-4.93 -3.91,0.32 -3.15,-3.7 -5,-5 z m -95,23 c 12.59,4.65 34.04,5.39 42,19 0.66,1.12 0.86,1.4 1,3 1.2,14.05 -7.63,16.48 -19.01,19.99 -11.37,3.52 -23.5,3.67 -34.99,5.01 8.54,3.32 17.67,4.6 27,5 0.99,-0.03 2,0 3,0 3.96,0 7.36,-0.36 11,-1 6.21,-1.09 11.89,-0.57 18,0 3.27,0.31 6.72,0 10,0 6.66,0 13.34,0.13 20,0 6.86,-0.14 12.71,-1.83 19,-4 -15.92,-1.64 -32.81,-3.44 -47,-12 -2.06,-1.97 -1.38,-2.22 -2,-5 -1.2,-5.38 -2.58,-11.29 3,-15 4.88,-3.25 10.65,-5.87 16,-8 7.19,-2.86 15.65,-4.05 23,-7 9.02,-3.63 12.71,-15.04 12,-24 -0.72,-6.51 -3.05,-12.58 -4,-19 -1.07,2.54 -2,7.69 -1,11 1,3.31 -2.18,6.44 -2,9 1.85,1.3 1.09,5.32 5,5 -2.39,7.45 -14.5,2.67 -21.07,4.93 -6.57,2.25 -13.46,3.41 -19.93,6.07 -0.79,-5.06 17.94,-5.2 15.21,-10.23 -2.73,-5.04 -17.92,-2.23 -19.21,3.23 -7.1,0.54 -14.25,1.07 -21,3 -0.62,3.03 4.63,1.89 4,5 -13.78,-1.63 -27.27,-10.34 -42,-8 -14.73,2.34 -2.65,-11.95 -5,-17 1.98,0.14 0.06,6.09 2,4 -0.82,-6.62 1.24,-14.44 0,-20 -4.47,12.83 -11.11,40.31 7,47 z" />
  </g>
  <g
     fill="#06ccf3"
     fill-opacity="1"
     stroke="None"
     id="g137"
     transform="translate(-169.96525,-193.92514)"
     style="display:inline">
    <path
       d="m 558,607 c 3.11,2.01 0.22,10.18 4.25,12.75 4.04,2.56 5.77,4.87 10.44,6.56 4.67,1.69 9.77,1.7 14.31,0.69 -3.33,0 -6.67,0 -10,0 13.52,-15.25 -2.14,-30.33 -7,-44 0.71,8.96 -2.98,20.37 -12,24 z"
       id="path137" />
  </g>
  <g
     fill="#049BC8"
     fill-opacity="1.00"
     stroke="None"
     id="g139"
     style="display:inline;fill:#00749b;fill-opacity:1"
     transform="translate(-169.96525,-193.92514)">
    <path
       id="path139"
       style="fill:#00749b;fill-opacity:1"
       d="m 683,602 c 5.95,-3.68 12.81,-11.36 17,-17 -5.13,5.89 -12.09,10.7 -17,17 z m 17,-17 c -4.19,5.64 -11.05,13.32 -17,17 -0.32,0.2 -0.74,0.88 -1,1 14.49,-6.14 25.47,-24.39 34.7,-38.3 9.22,-13.92 19.4,-36.48 19.3,-52.7 -5.37,27.33 -19.43,50.71 -36,73 z" />
  </g>
  <g
     fill="#00537a"
     fill-opacity="1"
     stroke="None"
     id="g140"
     transform="translate(-169.96525,-193.92514)"
     style="fill:#007ba3;fill-opacity:1">
    <path
       id="path140"
       style="display:inline;fill:#007ba3;fill-opacity:1"
       d="m 614,597 c 0,1.65 0.11,3.35 0,5 0.15,1.15 0.93,3.18 1,5 0.39,-4.02 0.4,-8.91 0,-13 -0.11,1.24 -0.85,2.28 -1,3 z m 0,0 c 0.15,-0.72 0.89,-1.76 1,-3 0.33,-3.81 -0.7,-7.9 -1,-11 0,4.67 0,9.33 0,14 z m 0,-14 c 0.3,3.1 1.33,7.19 1,11 0.4,4.09 0.39,8.98 0,13 0.55,13.68 -3.22,25.82 -8,38 4.35,0.08 -1.08,9.51 -3.23,12.77 -2.15,3.26 -7.53,7.68 -8.57,11.98 -1.05,4.31 -4.64,8.5 -6.2,13.25 21.32,-14.38 35.84,-37.23 42,-61 4.24,-16.36 3.57,-37.85 -7,-51 1.03,-2.37 5.04,0.46 6,-2 -4.52,0.31 -16.22,-0.74 -19,-5 1.51,6.61 3,11.82 3,19 z" />
  </g>
  <g
     fill="#d7dadc"
     fill-opacity="1"
     stroke="None"
     id="g141"
     transform="translate(-169.96525,-193.92514)"
     style="display:inline">
    <path
       d="m 504,669 c -6.16,-2.54 -13.95,-8.48 -20,-10 -9.33,-0.4 -18.46,-1.68 -27,-5 11.49,-1.34 23.62,-1.49 34.99,-5.01 11.38,-3.51 20.21,-5.94 19.01,-19.99 -0.2,3.76 -2.02,10.58 -5,13 -2.32,-6.44 -0.49,-14.91 -5,-21 3.42,0.62 5.69,3.9 9,5 -7.96,-13.61 -29.41,-14.35 -42,-19 -2.09,10.78 -10.13,20.64 -22,21 -11.87,0.36 -22.06,-4.57 -29,-14 14.31,38.15 53.82,68.4 94,74 0,-5.33 0,-10.67 0,-16 -2.75,0.17 -4.91,-2.14 -7,-3 z"
       id="path141" />
  </g>
  <g
     fill="#919294"
     fill-opacity="1"
     stroke="None"
     id="g144"
     transform="translate(-169.96525,-193.92514)">
    <path
       d="m 332,614 c 1.08,1.73 3.32,4.31 4,6 0.14,-1.45 2.13,-3.75 2,-2 -1.82,-2.44 -5.07,-3.26 -6,-4 z"
       id="path144" />
  </g>
  <g
     fill="#117cab"
     fill-opacity="1"
     stroke="None"
     id="g145"
     transform="translate(-169.96525,-193.92514)">
    <path
       d="m 519,622 c -4.03,3.41 -3.52,10.08 -3,15 0.62,2.78 -0.06,3.03 2,5 -3.8,-5.87 10.57,-17.59 1,-18 5.28,-2.68 12.82,-7.97 16,-10 -5.35,2.13 -11.12,4.75 -16,8 z"
       id="path145" />
  </g>
  <g
     fill="#afb1b4"
     fill-opacity="1"
     stroke="None"
     id="g146"
     transform="translate(-169.96525,-193.92514)">
    <path
       d="m 511,629 c -0.14,-1.6 -0.34,-1.88 -1,-3 -3.31,-1.1 -5.58,-4.38 -9,-5 4.51,6.09 2.68,14.56 5,21 2.98,-2.42 4.8,-9.24 5,-13 z"
       id="path146" />
  </g>
  <g
     fill="#002a46"
     fill-opacity="1"
     stroke="None"
     id="g147"
     transform="translate(-169.96525,-193.92514)">
    <path
       d="m 516,637 c -0.52,-4.92 -1.03,-11.59 3,-15 -5.58,3.71 -4.2,9.62 -3,15 z"
       id="path147" />
  </g>
  <g
     fill="#0976a3"
     fill-opacity="1"
     stroke="None"
     id="g148"
     transform="translate(-169.96525,-193.92514)">
    <path
       d="m 498,658 c 3.76,0.01 9.49,2.07 14,1 1.7,5.35 -5.45,4.37 -7,8 1.68,1.86 8.04,1.9 7,4 0,0 0,0.5 0,1 2.11,0.4 0.02,3.53 2,4 0.87,-10.89 18.18,-5.92 24,-15 -6.66,-1.27 -15.33,-1.59 -22,-3 -6.11,-0.57 -11.79,-1.09 -18,0 z"
       id="path148" />
  </g>
  <g
     fill="#0d6089"
     fill-opacity="1"
     stroke="None"
     id="g149"
     transform="translate(-169.96525,-193.92514)">
    <path
       d="m 487,659 c 5.35,1.22 11.55,8.04 17,10 2.48,0.89 5.46,1.27 8,2 1.04,-2.1 -5.32,-2.14 -7,-4 1.55,-3.63 8.7,-2.65 7,-8 -4.51,1.07 -10.24,-0.99 -14,-1 -3.64,0.64 -7.04,1 -11,1 z"
       id="path149" />
  </g>
  <g
     fill="#07446b"
     fill-opacity="1"
     stroke="None"
     id="g150"
     transform="translate(-169.96525,-193.92514)">
    <path
       d="m 546,658 c -6.66,0.13 -13.34,0 -20,0 6.24,0.6 13.67,0.77 20,0 z"
       id="path150" />
  </g>
  <g
     fill="#a3c6d9"
     fill-opacity="1"
     stroke="None"
     id="g151"
     transform="translate(-169.96525,-193.92514)"
     style="display:inline">
    <path
       d="m 504,669 c -5.45,-1.96 -11.65,-8.78 -17,-10 -1,0 -2.01,-0.03 -3,0 6.05,1.52 13.84,7.46 20,10 z"
       id="path151" />
  </g>
  <g
     fill="#24C7E8"
     fill-opacity="1.00"
     stroke="None"
     id="g152"
     style="fill:#05a3d3;fill-opacity:1"
     transform="translate(-169.96525,-193.92514)">
    <path
       id="path152"
       style="display:inline;fill:#05a3d3;fill-opacity:1"
       d="m 512,688 c 0,0.5 -0.2,1.9 0,2 19.75,0.36 40.89,-11.07 56,-23 -4.43,2.21 -10.89,5 -16.3,8.7 -5.41,3.69 -12.72,3.95 -18.48,7.52 -5.75,3.57 -15.45,1.9 -21.22,4.78 z m 23,-74 c -3.18,2.03 -10.72,7.32 -16,10 9.57,0.41 -4.8,12.13 -1,18 14.19,8.56 31.08,10.36 47,12 -6.29,2.17 -12.14,3.86 -19,4 -6.33,0.77 -13.76,0.6 -20,0 -3.28,0 -6.73,0.31 -10,0 6.67,1.41 15.34,1.73 22,3 -5.82,9.08 -23.13,4.11 -24,15 -1.98,-0.47 0.11,-3.6 -2,-4 0,5.33 0,10.67 0,16 5.77,-2.88 15.47,-1.21 21.22,-4.78 5.76,-3.57 13.07,-3.83 18.48,-7.52 5.41,-3.7 11.87,-6.49 16.3,-8.7 12.16,-9.6 25.6,-18.57 34,-32 1.02,-2.62 1.01,-9.04 3.98,-12.02 2.96,-2.99 2.15,-10.92 2.02,-9.98 -5.06,7.66 -12.17,12.04 -21,14 -4.54,1.01 -9.64,1 -14.31,-0.69 -4.67,-1.69 -6.4,-4 -10.44,-6.56 -4.03,-2.57 -1.14,-10.74 -4.25,-12.75 -7.35,2.95 -15.81,4.14 -23,7 z m 73,-1 c 0.13,-0.94 0.94,6.99 -2.02,9.98 -2.97,2.98 -2.96,9.4 -3.98,12.02 4.41,-7.04 8.23,-14.62 10,-23 -1.83,-0.15 -0.33,-2.76 -2,-3 -0.74,1.31 -1.16,2.73 -2,4 z" />
  </g>
  <g
     fill="#29BEDD"
     fill-opacity="1.00"
     stroke="None"
     id="g153"
     style="fill:#0292bf;fill-opacity:1"
     transform="translate(-169.96525,-193.92514)">
    <path
       id="path153"
       style="display:inline;fill:#0292bf;fill-opacity:1"
       d="m 574,694 c -1.44,0.85 -3.4,1.18 -4,3 5.15,-1.26 10,-3.29 15,-5 -1.4,-2.34 -5.16,0.14 -7,-2 -0.66,1.8 -2.55,2.89 -4,4 z M 736,512 c 0.1,16.22 -10.08,38.78 -19.3,52.7 -9.23,13.91 -20.21,32.16 -34.7,38.3 -4.46,2.1 -8.65,6.28 -13,9 -5.12,3.2 -13.29,8.74 -19.01,9.99 -5.72,1.25 -17.98,6.96 -18.99,0.01 -6.16,23.77 -20.68,46.62 -42,61 1.56,-4.75 5.15,-8.94 6.2,-13.25 1.04,-4.3 6.42,-8.72 8.57,-11.98 2.15,-3.26 7.58,-12.69 3.23,-12.77 -6.78,17.28 -19.44,35.71 -33,49 1.45,-1.11 3.34,-2.2 4,-4 1.84,2.14 5.6,-0.34 7,2 43.08,-11.87 78.73,-41.79 107,-77 0.71,6.22 -2.91,11.28 -4,17 29.18,-20.86 38.51,-56.66 48,-88 0.87,5.77 1.65,11.09 2,17 2.64,18.09 4.99,40.23 2,59 7.1,-12.74 17.13,-20.25 20.32,-35.68 3.2,-15.43 8.33,-33.36 6.68,-50.32 -3.11,1.73 -4.92,5.33 -8,7 -1.78,1.52 -3.67,3.73 -6,4 0,-5 0,-10 0,-15 -0.81,-21.15 -5.98,-39.43 -12,-59 -0.01,0.13 -3.52,7.48 -2,12 1.52,4.52 -0.78,10.52 -1,15 -0.22,4.48 -1.14,9.62 -2,14 z" />
  </g>
  <g
     fill="#000514"
     fill-opacity="1.00"
     stroke="None"
     id="g155"
     style="display:inline;fill:#000001;fill-opacity:1"
     transform="translate(-169.96525,-193.92514)">
    <path
       id="path155"
       style="display:inline;fill:#000001;fill-opacity:1"
       d="m 482,779 c -30.73,-26.69 -59.85,-60 -97,-77 0.81,7.91 -10.86,8.49 -10,17 -2.87,-1.88 -6.86,0.87 -8,3 -2.27,-0.92 -4.48,-2.07 -7,-2 -0.46,4.48 0.8,8.67 -2,12 3.4,-0.04 4.25,4.31 4,7 2.71,-2.33 8.42,0.48 6,4 6.54,-4.9 9.79,4.27 16,5 1.13,9.78 20.85,12.78 25.44,18.22 4.58,5.45 8.67,3.44 13.48,5.86 4.81,2.42 13.25,4.99 17.34,5.32 4.08,0.34 15.1,-1.77 12.74,-3.4 9.52,2.31 19.54,2.56 29,5 z M 228,505 v 22 c 0,81.85 44.68,166.69 111,216 28.74,21.37 55.95,34.66 90.01,45.99 34.06,11.34 84.52,16.68 120.99,11.01 36.47,-5.67 70.19,-17.68 101.08,-34.92 30.89,-17.23 52.08,-34.56 75.69,-61.31 23.61,-26.75 37.71,-51.26 51.16,-84.84 13.45,-33.59 21.3,-78.26 19.07,-116.93 -2.23,-38.67 -11.6,-75.13 -27,-110 -2.11,-4.7 -4.67,-8.99 -8,-13 17.58,-12.57 28,-34.62 28,-56 v -15 c 0,-46.63 -44.79,-93 -92,-93 h -12 c -12.31,0 -25.64,3.59 -36,10 -11.22,8.45 -19.82,18.93 -33.32,11.32 -13.5,-7.61 -26.18,-8.52 -40.67,-13.33 -14.5,-4.81 -31.41,-4.11 -46.99,-6.01 -15.57,-1.91 -35.55,-0.61 -50.95,1.09 -15.39,1.71 -30.05,5.66 -44.39,9.61 -14.35,3.94 -25.59,9.33 -39.68,13.32 -5.82,-5.3 -11.95,-12.52 -19,-16 -9.13,-4.52 -19.69,-9.29 -30,-10 3.36,0.94 13.06,7.99 17.69,8.31 4.63,0.31 15.53,9.83 8.06,9.89 -7.46,0.05 -11.08,-6.97 -18.44,-7.51 -7.36,-0.53 -18.45,-1.66 -26.31,-0.69 -1.58,0.19 -0.93,0.29 -2,1 4.74,0 10.01,0.61 14,1 17.89,0 34.94,9.09 47,22 4.27,4.58 10.27,10.53 13,16 0.4,-0.99 2.06,-1.51 3,-2 34.05,-17.63 72.85,-26 112,-26 41.32,0 79.72,9.86 116,27 20.49,-45.21 88.66,-49.72 121,-15 19.52,17.35 29.43,46.15 25,72 -1.16,-8.75 -1.27,-19.76 -4.93,-28.07 -3.66,-8.32 -6.01,-14.87 -12.32,-21.68 -6.3,-6.81 -11.72,-10.25 -19.82,-14.18 -8.11,-3.92 -19.63,-5.49 -28.93,-5.07 -9.3,0.42 -18.93,3.12 -26.23,7.77 -7.3,4.65 -13.3,8.83 -18.52,15.48 -5.22,6.65 -11.82875,11.41937 -16.90875,15.35937 C 692.16125,318.13937 720.22,366.79 737,413 c 4.77,-5.71 1.06,-17.47 0,-25 24.24,44.02 37.43,95.08 33,147 -0.19,4.91 -0.38,9.24 -1,14 -4.17,31.99 -11.41,66.73 -33,92 -1.18,1.38 -2.15,3.39 -4,4 4.8,-27.17 9.1,-55.63 6,-84 -0.35,-5.91 -1.13,-11.23 -2,-17 -9.49,31.34 -18.82,67.14 -48,88 1.09,-5.72 4.71,-10.78 4,-17 -28.27,35.21 -63.92,65.13 -107,77 -5,1.71 -9.85,3.74 -15,5 0.6,-1.82 2.56,-2.15 4,-3 13.56,-13.29 26.22,-31.72 33,-49 4.78,-12.18 8.55,-24.32 8,-38 -0.07,-1.82 -0.85,-3.85 -1,-5 -0.23,3.35 -1.3,6.69 -2,10 -1.77,8.38 -5.59,15.96 -10,23 -8.4,13.43 -21.84,22.4 -34,32 -15.11,11.93 -36.25,23.36 -56,23 -24.93,-0.45 -45.94,-16.22 -64.75,-31.25 C 428.44,643.72 412.12,623.14 410,599 c -2.78,36.16 20.81,70.79 45,97 -45.63,-11.31 -88.94,-38.09 -117,-78 0.13,-1.75 -1.86,0.55 -2,2 1.76,4.37 1.52,9.78 4,14 -30.56,-21.08 -43.45,-58.41 -49,-93 -7.04,30.8 -4.53,66.89 2,98 0.29,1.87 1.75,4.79 0,6 -54.56,-73.87 -47.38,-180.48 -5,-258 2.28,6.91 -3.44,16.85 0,24 13.86,-30.32 27.41,-61.21 51,-86 3.37,-3.94 7.11,-7.67 11,-11 9.82,-8.39 19.54,-17.11 30,-24 -7.11,0.25 -14.68,-9.67 -19.75,-15.25 -5.08,-5.57 -11.99,-13.28 -19.25,-16.75 -14.62,-6.99 -34.48,-8.59 -50,-3 -14.17,5.1 -26.83,17.02 -33,31 -2.4,5.43 -3.95,11.16 -5,17 -0.37,2.07 -0.86,3.86 -1,6 0.07,13.3 1,24.9 1,39 -2.67,-0.11 -1.85,3.92 -5,4 0.32,-3.37 -2.67,-8.03 -4,-3 -14.01,-28.96 -7.67,-66.94 11.25,-91.75 C 274.17,232.43 302.44,220.22 331,215 h -4 c -76.75,1.04 -128.16,110.75 -64,162 -20.45,39 -35,82.67 -35,128 m 39,-76 c -2.88,13.39 -8.38,27.01 -10.33,40.67 -1.95,13.66 -7.25,29.25 -6.67,42.33 0.58,13.08 -3.77,22.2 3,28 0.58,6.14 -6.32,10.58 0,14 0.5,7.45 -5.12,5.5 -6,1 -2.3,1.71 -1.33,6.23 -5,6 3.82,1.7 -0.27,4.43 -1,7 -2.88,-2.79 -3.01,-6.85 1,-9 -1.32,-5.71 -3.66,-10.81 -10,-12 1.67,-9.04 1.18,-14.17 -0.93,-23.08 -2.11,-8.9 -0.13,-21.12 -0.08,-30.93 0.05,-9.81 1.88,-22.07 3.99,-31.01 2.1,-8.95 3.84,-20.5 6.8,-28.2 2.96,-7.71 2.99,-21.84 10.92,-21.47 7.92,0.37 6.82,17.83 14.3,16.69 m 215,350 c -9.46,-2.44 -19.48,-2.69 -29,-5 2.36,1.63 -8.66,3.74 -12.74,3.4 -4.09,-0.33 -12.53,-2.9 -17.34,-5.32 -4.81,-2.42 -8.9,-0.41 -13.48,-5.86 -4.59,-5.44 -24.31,-8.44 -25.44,-18.22 -6.21,-0.73 -9.46,-9.9 -16,-5 2.42,-3.52 -3.29,-6.33 -6,-4 0.25,-2.69 -0.6,-7.04 -4,-7 2.8,-3.33 1.54,-7.52 2,-12 2.52,-0.07 4.73,1.08 7,2 1.14,-2.13 5.13,-4.88 8,-3 -0.86,-8.51 10.81,-9.09 10,-17 37.15,17 66.27,50.31 97,77 z M 267,429 c -7.48,1.14 -6.38,-16.32 -14.3,-16.69 -7.93,-0.37 -7.96,13.76 -10.92,21.47 -2.96,7.7 -4.7,19.25 -6.8,28.2 -2.11,8.94 -3.94,21.2 -3.99,31.01 -0.05,9.81 -2.03,22.03 0.08,30.93 2.11,8.91 2.6,14.04 0.93,23.08 6.34,1.19 8.68,6.29 10,12 -4.01,2.15 -3.88,6.21 -1,9 0.73,-2.57 4.82,-5.3 1,-7 3.67,0.23 2.7,-4.29 5,-6 0.88,4.5 6.5,6.45 6,-1 -6.32,-3.42 0.58,-7.86 0,-14 -6.77,-5.8 -2.42,-14.92 -3,-28 -0.58,-13.08 4.72,-28.67 6.67,-42.33 1.95,-13.66 7.45,-27.28 10.33,-40.67 z M 249,298 c -1.75,4.29 -0.41,3.31 0,0 z m 3,11 c -0.06,0.99 0,2.01 0,3 0,2.84 0.79,6.98 -1,9 -2.77335,-6.42982 -2.4276,-13.42512 -1.71875,-20.21875 0.12,-1.01 0.60875,-4.26125 0.71875,-4.78125 2.42,-11.2 4.64,-20.14 11,-30 4.36,-6.75 9.85,-12.69 16,-18 8.04,-8.12 19.4,-13.37 30,-17 3.33,-1.96 4.79,-3.96 9,-5 3.98,-1.6 5.73,-1.41 10,-1 7.86,-0.97 18.95,0.16 26.31,0.69 7.36,0.54 10.98,7.56 18.44,7.51 7.47,-0.06 -3.43,-9.58 -8.06,-9.89 -4.63,-0.32 -14.33,-7.37 -17.69,-8.31 -1.65,-0.11 -3.35,0 -5,0 h -9 c -28.56,5.22 -56.83,17.43 -75.75,42.25 -18.92,24.81 -25.26,62.79 -11.25,91.75 1.33,-5.03 4.32,-0.37 4,3 3.15,-0.08 2.33,-4.11 5,-4 0,-14.1 -0.93,-25.7 -1,-39 z m 69,-82 c 5.57,-0.49 11.41,0 17,0 -3.99,-0.39 -9.26,-1 -14,-1 0,0 -0.5,0.03 -1,0 -1.32,-0.09 -1.22,0.62 -2,1 z m -5,-1 c -4.21,1.04 -5.67,3.04 -9,5 4.55,-1.55 9.14,-3.57 14,-4 0.78,-0.38 0.68,-1.09 2,-1 -2.21,-1.73 -4.44,-0.64 -7,0 z m 0,0 c 2.56,-0.64 4.79,-1.73 7,0 0.5,0.03 1,0 1,0 1.07,-0.71 0.42,-0.81 2,-1 -4.27,-0.41 -6.02,-0.6 -10,1 z m 23,99 11,-11 c -3.89,3.33 -7.63,7.06 -11,11 z"
       sodipodi:nodetypes="ccccccccccsccccsccscscsccsssscsccccccccccccccccsccccccssscccccccccccccccccccccsccccccccccccccccccccccccccccssccccccccscccccccsccccccccccccccsccccccccssccccsccccccccccccscccccccccccccccccccccccc" />
  </g>
</svg>
